<svg xmlns="http://www.w3.org/2000/svg" xmlns:xlink="http://www.w3.org/1999/xlink" width="500" zoomAndPan="magnify" viewBox="0 0 375 374.999991" height="500" preserveAspectRatio="xMidYMid meet" version="1.2"><defs/><g id="908a9ea3a3"><g style="fill:#ffffff;fill-opacity:1;"><g transform="translate(28.395539, 162.368163)"><path style="stroke:none" d="M 20.988281 12.546875 C 13.421875 12.546875 7.128906 10.949219 2.109375 7.753906 C -2.9375 4.542969 -6.625 0.34375 -8.949219 -4.835938 C -11.136719 -9.710938 -12.230469 -14.726562 -12.230469 -19.882812 C -12.230469 -25.027344 -11.195312 -29.949219 -9.125 -34.652344 C -6.992188 -39.503906 -3.957031 -43.472656 -0.0195312 -46.554688 C 4.207031 -49.867188 9.105469 -51.523438 14.675781 -51.523438 C 16.847656 -51.523438 18.671875 -50.933594 20.148438 -49.753906 C 22.023438 -48.253906 22.960938 -46.238281 22.960938 -43.710938 C 22.960938 -42.960938 23.105469 -42.316406 23.390625 -41.78125 C 23.707031 -41.183594 24.242188 -40.613281 24.996094 -40.074219 C 26.960938 -38.660156 29.464844 -37.953125 32.507812 -37.953125 C 36.117188 -37.953125 40.179688 -39.675781 44.695312 -43.128906 C 49.390625 -46.714844 53.378906 -52.726562 56.660156 -61.164062 C 58.011719 -64.699219 59.394531 -68.375 60.804688 -72.195312 C 62.246094 -76.09375 63.664062 -79.757812 65.054688 -83.179688 C 66.53125 -87.019531 68.65625 -89.863281 71.4375 -91.714844 C 74.167969 -93.535156 77.285156 -94.445312 80.796875 -94.445312 C 86.421875 -94.445312 90.253906 -92.707031 92.292969 -89.230469 C 93.945312 -86.410156 94.363281 -82.949219 93.542969 -78.84375 C 92.941406 -75.960938 91.84375 -72.492188 90.246094 -68.445312 C 88.757812 -64.675781 87.167969 -60.75 85.472656 -56.667969 C 83.84375 -52.75 82.445312 -49.042969 81.28125 -45.546875 C 80.273438 -42.527344 79.769531 -40.125 79.769531 -38.347656 C 79.769531 -37.800781 79.902344 -37.371094 80.171875 -37.054688 C 80.128906 -37.105469 80.085938 -37.144531 80.035156 -37.175781 L 80.066406 -37.171875 C 80.363281 -37.058594 80.816406 -37.003906 81.425781 -37.003906 C 83.46875 -37.003906 85.363281 -37.730469 87.105469 -39.183594 C 89.378906 -41.078125 91.414062 -43.648438 93.214844 -46.894531 C 95.113281 -50.324219 96.582031 -54.152344 97.613281 -58.371094 C 98.65625 -62.644531 99.179688 -66.859375 99.179688 -71.011719 C 99.179688 -74.722656 98.523438 -78.097656 97.214844 -81.136719 C 96.097656 -83.734375 94.074219 -85.886719 91.144531 -87.601562 C 88.015625 -89.429688 83.355469 -90.34375 77.164062 -90.34375 C 72.910156 -90.34375 68.84375 -89.644531 64.96875 -88.246094 C 61.441406 -86.976562 58.597656 -85.058594 56.441406 -82.5 C 54.53125 -80.238281 53.574219 -77.089844 53.574219 -73.0625 C 53.574219 -72.074219 53.753906 -71.347656 54.105469 -70.878906 C 54.164062 -70.808594 54.207031 -70.757812 54.238281 -70.726562 C 54.214844 -70.75 54.175781 -70.773438 54.125 -70.800781 C 53.960938 -70.890625 53.804688 -70.933594 53.652344 -70.933594 L 53.921875 -70.933594 L 54.1875 -70.910156 C 55.707031 -70.769531 57.027344 -70.230469 58.15625 -69.289062 C 59.300781 -68.328125 60.070312 -67.101562 60.460938 -65.605469 C 60.875 -64.03125 60.796875 -62.203125 60.226562 -60.132812 C 59.457031 -57.335938 57.890625 -54.308594 55.523438 -51.046875 C 53.152344 -47.777344 50.136719 -44.945312 46.480469 -42.546875 C 42.445312 -39.90625 37.945312 -38.582031 32.980469 -38.582031 C 27.378906 -38.582031 22.582031 -40.042969 18.597656 -42.960938 C 14.765625 -45.765625 11.902344 -49.4375 10.003906 -53.976562 C 8.226562 -58.230469 7.335938 -62.75 7.335938 -67.539062 C 7.335938 -75.203125 9.042969 -82.449219 12.460938 -89.28125 C 15.820312 -96 20.542969 -101.9375 26.632812 -107.089844 C 32.660156 -112.191406 39.78125 -116.175781 47.992188 -119.046875 C 56.144531 -121.898438 65.082031 -123.324219 74.796875 -123.324219 C 85.640625 -123.324219 94.851562 -121.847656 102.429688 -118.894531 C 110.207031 -115.867188 116.492188 -111.65625 121.277344 -106.265625 C 126.007812 -100.9375 129.417969 -94.835938 131.507812 -87.960938 C 133.519531 -81.351562 134.527344 -74.386719 134.527344 -67.066406 C 134.527344 -58.054688 133.175781 -49.183594 130.476562 -40.460938 C 127.78125 -31.765625 124.097656 -23.894531 119.417969 -16.847656 C 114.632812 -9.644531 109.089844 -3.855469 102.792969 0.519531 C 96.097656 5.171875 88.972656 7.496094 81.425781 7.496094 C 73.222656 7.496094 66.644531 4.917969 61.691406 -0.242188 C 56.90625 -5.226562 54.257812 -11.699219 53.742188 -19.660156 L 59.648438 -20.039062 L 64.859375 -17.234375 C 60.011719 -8.230469 53.90625 -1.070312 46.546875 4.246094 C 38.882812 9.777344 30.363281 12.546875 20.988281 12.546875 Z M 20.988281 0.710938 C 27.8125 0.710938 34.023438 -1.308594 39.617188 -5.351562 C 45.507812 -9.605469 50.449219 -15.4375 54.4375 -22.847656 L 64.226562 -41.023438 L 65.554688 -20.421875 C 65.882812 -15.339844 67.441406 -11.34375 70.230469 -8.4375 C 72.855469 -5.707031 76.585938 -4.339844 81.425781 -4.339844 C 86.503906 -4.339844 91.375 -5.960938 96.039062 -9.199219 C 101.101562 -12.714844 105.605469 -17.445312 109.554688 -23.394531 C 113.609375 -29.496094 116.8125 -36.351562 119.167969 -43.964844 C 121.515625 -51.546875 122.691406 -59.246094 122.691406 -67.066406 C 122.691406 -73.210938 121.855469 -79.027344 120.1875 -84.515625 C 118.597656 -89.738281 116.011719 -94.371094 112.425781 -98.40625 C 108.902344 -102.375 104.140625 -105.53125 98.136719 -107.867188 C 91.9375 -110.28125 84.15625 -111.488281 74.796875 -111.488281 C 66.421875 -111.488281 58.789062 -110.28125 51.898438 -107.875 C 45.066406 -105.484375 39.191406 -102.210938 34.277344 -98.054688 C 29.425781 -93.949219 25.683594 -89.257812 23.046875 -83.988281 C 20.464844 -78.824219 19.171875 -73.339844 19.171875 -67.539062 C 19.171875 -64.332031 19.757812 -61.332031 20.925781 -58.539062 C 21.972656 -56.027344 23.527344 -54.019531 25.589844 -52.511719 C 27.492188 -51.117188 29.957031 -50.417969 32.980469 -50.417969 C 35.589844 -50.417969 37.929688 -51.09375 39.996094 -52.449219 C 42.441406 -54.050781 44.421875 -55.898438 45.945312 -57.996094 C 47.46875 -60.097656 48.425781 -61.855469 48.816406 -63.269531 C 48.867188 -63.457031 48.894531 -63.574219 48.898438 -63.621094 C 48.871094 -63.335938 48.910156 -63 49.011719 -62.609375 C 49.261719 -61.664062 49.777344 -60.867188 50.5625 -60.207031 C 51.328125 -59.570312 52.179688 -59.207031 53.117188 -59.121094 L 53.652344 -65.015625 L 53.652344 -59.097656 C 50.011719 -59.097656 47.019531 -60.640625 44.675781 -63.726562 C 42.71875 -66.308594 41.738281 -69.421875 41.738281 -73.0625 C 41.738281 -79.976562 43.625 -85.664062 47.394531 -90.132812 C 50.917969 -94.308594 55.4375 -97.390625 60.957031 -99.382812 C 66.128906 -101.246094 71.53125 -102.179688 77.164062 -102.179688 C 85.492188 -102.179688 92.144531 -100.726562 97.117188 -97.820312 C 102.285156 -94.796875 105.941406 -90.796875 108.085938 -85.816406 C 110.039062 -81.285156 111.015625 -76.347656 111.015625 -71.011719 C 111.015625 -65.90625 110.378906 -60.757812 109.109375 -55.5625 C 107.828125 -50.3125 105.980469 -45.511719 103.566406 -41.160156 C 101.050781 -36.621094 98.089844 -32.929688 94.683594 -30.089844 C 90.746094 -26.808594 86.328125 -25.167969 81.425781 -25.167969 C 76.972656 -25.167969 73.554688 -26.574219 71.160156 -29.378906 C 69.007812 -31.90625 67.933594 -34.894531 67.933594 -38.347656 C 67.933594 -41.40625 68.640625 -45.054688 70.050781 -49.292969 C 71.308594 -53.054688 72.804688 -57.027344 74.542969 -61.210938 C 76.210938 -65.226562 77.773438 -69.085938 79.234375 -72.789062 C 80.585938 -76.210938 81.484375 -79.003906 81.933594 -81.167969 C 82.085938 -81.925781 82.140625 -82.542969 82.101562 -83.015625 C 82.089844 -83.136719 82.074219 -83.226562 82.054688 -83.296875 C 82.054688 -83.289062 82.0625 -83.273438 82.082031 -83.246094 C 82.253906 -82.949219 82.464844 -82.707031 82.714844 -82.519531 C 82.816406 -82.441406 82.886719 -82.398438 82.921875 -82.382812 C 82.503906 -82.535156 81.792969 -82.609375 80.796875 -82.609375 C 79.675781 -82.609375 78.746094 -82.363281 78.003906 -81.867188 C 77.308594 -81.40625 76.648438 -80.359375 76.019531 -78.726562 C 74.675781 -75.417969 73.304688 -71.871094 71.90625 -68.089844 C 70.480469 -64.230469 69.074219 -60.492188 67.691406 -56.875 C 63.605469 -46.371094 58.335938 -38.65625 51.882812 -33.722656 C 45.246094 -28.652344 38.785156 -26.117188 32.507812 -26.117188 C 26.921875 -26.117188 22.113281 -27.566406 18.085938 -30.464844 C 15.839844 -32.078125 14.125 -33.996094 12.945312 -36.214844 C 11.730469 -38.492188 11.125 -40.992188 11.125 -43.710938 C 11.125 -43.238281 11.226562 -42.753906 11.433594 -42.265625 C 11.722656 -41.566406 12.164062 -40.984375 12.753906 -40.511719 C 13.203125 -40.152344 13.679688 -39.902344 14.1875 -39.769531 C 14.390625 -39.714844 14.554688 -39.6875 14.675781 -39.6875 C 11.828125 -39.6875 9.363281 -38.871094 7.277344 -37.238281 C 4.902344 -35.375 3.046875 -32.925781 1.707031 -29.886719 C 0.308594 -26.703125 -0.394531 -23.367188 -0.394531 -19.882812 C -0.394531 -16.414062 0.351562 -13.015625 1.847656 -9.683594 C 3.207031 -6.65625 5.410156 -4.175781 8.464844 -2.230469 C 11.542969 -0.269531 15.71875 0.710938 20.988281 0.710938 Z M 20.988281 0.710938 "/></g></g><g style="fill:#ffffff;fill-opacity:1;"><g transform="translate(156.840535, 162.368163)"><path style="stroke:none" d="M 31.71875 -79.453125 C 26.84375 -79.453125 22.574219 -80.546875 18.902344 -82.734375 C 16.496094 -84.167969 14.695312 -86.164062 13.5 -88.71875 C 12.441406 -90.972656 11.914062 -93.59375 11.914062 -96.574219 C 11.914062 -104.273438 14.351562 -109.730469 19.222656 -112.953125 C 23.316406 -115.660156 28.113281 -117.011719 33.613281 -117.011719 C 38.765625 -117.011719 43.222656 -115.804688 46.984375 -113.390625 C 49.523438 -111.765625 51.308594 -109.46875 52.351562 -106.507812 C 53.222656 -104.023438 53.519531 -101.125 53.238281 -97.808594 C 52.648438 -91.035156 50.066406 -86.175781 45.492188 -83.234375 C 41.570312 -80.714844 36.980469 -79.453125 31.71875 -79.453125 Z M 31.71875 -91.289062 C 34.664062 -91.289062 37.121094 -91.921875 39.089844 -93.191406 C 40.40625 -94.035156 41.191406 -95.910156 41.445312 -98.8125 C 41.664062 -101.386719 41.378906 -102.925781 40.59375 -103.429688 C 38.78125 -104.59375 36.453125 -105.175781 33.613281 -105.175781 C 30.484375 -105.175781 27.863281 -104.476562 25.75 -103.078125 C 24.417969 -102.199219 23.75 -100.03125 23.75 -96.574219 C 23.75 -94.609375 24.15625 -93.382812 24.964844 -92.902344 C 26.765625 -91.828125 29.019531 -91.289062 31.71875 -91.289062 Z M 14.203125 5.917969 C 10.617188 5.917969 7.46875 5.21875 4.75 3.824219 C 1.847656 2.332031 -0.445312 0.121094 -2.132812 -2.808594 C -4.867188 -7.5625 -6.234375 -13.199219 -6.234375 -19.726562 C -6.234375 -23.757812 -5.835938 -28 -5.035156 -32.449219 C -4.257812 -36.78125 -3.257812 -40.957031 -2.03125 -44.96875 C 1.792969 -56.871094 5.535156 -66.074219 9.207031 -72.578125 C 13.808594 -80.738281 19.523438 -84.820312 26.351562 -84.820312 C 30.105469 -84.820312 33.019531 -83.445312 35.097656 -80.695312 C 36.789062 -78.453125 37.636719 -75.492188 37.636719 -71.800781 C 37.636719 -67.945312 36.910156 -64.035156 35.460938 -60.066406 L 31.917969 -50.292969 C 30.996094 -47.742188 30.535156 -45.390625 30.535156 -43.238281 C 30.535156 -42.5625 30.597656 -42.035156 30.726562 -41.65625 C 30.753906 -41.574219 30.777344 -41.515625 30.800781 -41.476562 C 30.796875 -41.480469 30.789062 -41.492188 30.773438 -41.503906 C 30.933594 -41.34375 31.25 -41.265625 31.71875 -41.265625 C 32.621094 -41.265625 33.324219 -41.492188 33.828125 -41.949219 C 35.109375 -43.105469 36.40625 -44.648438 37.71875 -46.570312 C 38.753906 -48.128906 40.070312 -49.257812 41.667969 -49.957031 C 43.421875 -50.730469 45.273438 -50.878906 47.222656 -50.414062 C 49.839844 -49.785156 52.019531 -48.398438 53.753906 -46.25 C 54.839844 -44.910156 55.519531 -43.484375 55.789062 -41.976562 C 56.128906 -40.078125 55.828125 -38.277344 54.882812 -36.578125 L 54.808594 -36.445312 L 54.726562 -36.3125 C 53.816406 -34.859375 52.707031 -32.675781 51.394531 -29.761719 C 49.914062 -26.472656 48.140625 -22.921875 46.070312 -19.109375 C 43.917969 -15.144531 41.453125 -11.375 38.679688 -7.808594 C 35.703125 -3.980469 32.3125 -0.8125 28.511719 1.703125 C 24.261719 4.511719 19.492188 5.917969 14.203125 5.917969 Z M 14.203125 -5.917969 C 17.117188 -5.917969 19.710938 -6.667969 21.984375 -8.171875 C 24.707031 -9.96875 27.15625 -12.273438 29.335938 -15.074219 C 31.714844 -18.132812 33.824219 -21.359375 35.671875 -24.757812 C 37.597656 -28.3125 39.242188 -31.597656 40.601562 -34.621094 C 42.132812 -38.019531 43.496094 -40.675781 44.691406 -42.585938 L 49.707031 -39.449219 L 44.535156 -42.324219 C 44.113281 -41.570312 43.984375 -40.753906 44.140625 -39.882812 C 44.226562 -39.398438 44.367188 -39.039062 44.554688 -38.804688 C 44.507812 -38.863281 44.476562 -38.898438 44.457031 -38.910156 L 44.460938 -38.902344 C 45.09375 -38.75 45.75 -38.824219 46.425781 -39.121094 C 46.941406 -39.347656 47.300781 -39.609375 47.496094 -39.902344 C 45.652344 -37.199219 43.742188 -34.953125 41.761719 -33.164062 C 39.003906 -30.675781 35.65625 -29.429688 31.71875 -29.429688 C 27.980469 -29.429688 24.875 -30.664062 22.40625 -33.136719 C 19.933594 -35.605469 18.699219 -38.972656 18.699219 -43.238281 C 18.699219 -46.769531 19.394531 -50.464844 20.789062 -54.332031 L 24.34375 -64.125 C 25.316406 -66.785156 25.800781 -69.34375 25.800781 -71.800781 C 25.800781 -72.496094 25.75 -73.046875 25.644531 -73.460938 C 25.617188 -73.5625 25.59375 -73.636719 25.574219 -73.683594 C 25.585938 -73.65625 25.613281 -73.613281 25.65625 -73.558594 C 25.824219 -73.332031 26.042969 -73.160156 26.3125 -73.042969 C 26.390625 -73.007812 26.457031 -72.984375 26.511719 -72.976562 C 26.484375 -72.980469 26.429688 -72.984375 26.351562 -72.984375 C 24.132812 -72.984375 21.855469 -70.910156 19.515625 -66.761719 C 16.238281 -60.957031 12.832031 -52.539062 9.289062 -41.507812 C 8.199219 -37.945312 7.308594 -34.230469 6.613281 -30.355469 C 5.941406 -26.601562 5.601562 -23.054688 5.601562 -19.726562 C 5.601562 -15.308594 6.445312 -11.636719 8.128906 -8.710938 C 8.652344 -7.800781 9.328125 -7.132812 10.160156 -6.703125 C 11.179688 -6.179688 12.527344 -5.917969 14.203125 -5.917969 Z M 14.203125 -5.917969 "/></g></g><g style="fill:#ffffff;fill-opacity:1;"><g transform="translate(195.658072, 162.368163)"><path style="stroke:none" d="M 78.394531 -46.519531 C 79.453125 -48.105469 80.863281 -49.199219 82.628906 -49.804688 C 84.121094 -50.3125 85.722656 -50.40625 87.4375 -50.074219 C 89.875 -49.605469 92 -48.558594 93.816406 -46.9375 C 95.339844 -45.574219 96.265625 -43.941406 96.589844 -42.042969 C 96.898438 -40.230469 96.609375 -38.433594 95.714844 -36.644531 C 93.4375 -31.886719 91.226562 -27.203125 89.078125 -22.589844 C 86.8125 -17.726562 84.398438 -13.289062 81.835938 -9.28125 C 79.042969 -4.910156 75.902344 -1.382812 72.40625 1.300781 C 68.398438 4.378906 63.828125 5.917969 58.703125 5.917969 C 56.410156 5.917969 54.320312 5.324219 52.4375 4.140625 C 50.707031 3.054688 49.253906 1.519531 48.085938 -0.460938 L 53.179688 -3.472656 L 58.832031 -1.714844 C 55.328125 9.558594 51.542969 18.652344 47.46875 25.566406 C 43.136719 32.925781 38.191406 38.335938 32.636719 41.792969 C 26.945312 45.332031 20.535156 47.105469 13.414062 47.105469 C 3.523438 47.105469 -4.28125 44.375 -10.003906 38.917969 C -15.800781 33.386719 -18.699219 25.992188 -18.699219 16.726562 C -18.699219 11.96875 -17.980469 7.792969 -16.539062 4.191406 C -15.132812 0.675781 -13.472656 -2.179688 -11.554688 -4.371094 C -9.46875 -6.753906 -7.417969 -8.359375 -5.398438 -9.1875 C -3.542969 -9.945312 -1.796875 -10.085938 -0.15625 -9.605469 C 1.304688 -9.179688 2.480469 -8.347656 3.367188 -7.117188 C 4.042969 -6.171875 4.460938 -5.097656 4.609375 -3.890625 C 4.859375 -1.59375 5.875 0.253906 7.664062 1.644531 C 9.730469 3.257812 12.738281 4.105469 16.6875 4.183594 C 19.28125 4.183594 21.765625 3.53125 24.140625 2.226562 C 26.804688 0.765625 29.199219 -1.15625 31.324219 -3.542969 C 33.46875 -5.949219 35.152344 -8.589844 36.371094 -11.464844 C 37.527344 -14.195312 38.109375 -16.898438 38.109375 -19.566406 C 38.109375 -18.867188 38.410156 -18.140625 39.011719 -17.390625 C 39.546875 -16.71875 40.21875 -16.226562 41.019531 -15.921875 C 41.601562 -15.699219 42.175781 -15.601562 42.746094 -15.628906 C 43.632812 -15.675781 44.378906 -15.96875 44.976562 -16.515625 C 45.09375 -16.625 45.183594 -16.71875 45.238281 -16.800781 C 45.214844 -16.765625 45.179688 -16.695312 45.128906 -16.589844 L 39.765625 -19.09375 L 45.289062 -16.96875 C 42.792969 -10.476562 39.085938 -5.316406 34.171875 -1.484375 C 29.054688 2.503906 23.816406 4.496094 18.464844 4.496094 C 11.105469 4.496094 5.203125 1.738281 0.753906 -3.785156 C -3.378906 -8.917969 -5.445312 -15.125 -5.445312 -22.40625 C -5.445312 -28.800781 -4.539062 -35.5 -2.730469 -42.507812 C -0.90625 -49.578125 1.859375 -56.222656 5.570312 -62.445312 C 9.414062 -68.890625 14.226562 -74.167969 20.003906 -78.28125 C 26.132812 -82.640625 33.195312 -84.820312 41.1875 -84.820312 C 44.984375 -84.820312 48.050781 -84.429688 50.394531 -83.648438 C 52.957031 -82.792969 55 -81.648438 56.527344 -80.210938 C 57.402344 -79.390625 58.144531 -78.695312 58.757812 -78.136719 C 58.257812 -78.59375 57.765625 -78.824219 57.28125 -78.824219 C 57.515625 -78.824219 57.679688 -78.839844 57.777344 -78.875 C 57.738281 -78.859375 57.695312 -78.832031 57.652344 -78.792969 C 58.910156 -79.929688 60.304688 -81.058594 61.839844 -82.179688 C 64.246094 -83.941406 67.304688 -84.820312 71.011719 -84.820312 C 75.089844 -84.820312 78.113281 -83.503906 80.085938 -80.875 C 81.664062 -78.769531 82.453125 -76.167969 82.453125 -73.0625 C 82.453125 -70.289062 81.660156 -67.214844 80.078125 -63.839844 C 78.859375 -61.25 77.273438 -57.917969 75.320312 -53.851562 C 73.472656 -50.007812 71.484375 -44.988281 69.347656 -38.785156 L 63.753906 -40.714844 L 69.492188 -39.277344 C 69.085938 -37.644531 68.882812 -36.339844 68.882812 -35.367188 C 68.882812 -35.089844 68.894531 -34.882812 68.925781 -34.753906 C 68.902344 -34.855469 68.835938 -34.992188 68.726562 -35.164062 C 68.753906 -35.117188 68.769531 -35.09375 68.773438 -35.09375 C 68.714844 -35.148438 68.644531 -35.199219 68.554688 -35.253906 C 68.351562 -35.367188 68.171875 -35.425781 68.011719 -35.425781 C 68.175781 -35.425781 68.445312 -35.535156 68.824219 -35.753906 C 69.589844 -36.1875 70.453125 -36.921875 71.410156 -37.953125 C 73.96875 -40.710938 76.328125 -43.613281 78.492188 -46.664062 L 83.320312 -43.238281 Z M 88.242188 -39.957031 L 88.195312 -39.882812 L 88.144531 -39.8125 C 85.683594 -36.339844 82.992188 -33.035156 80.082031 -29.902344 C 76.175781 -25.695312 72.152344 -23.589844 68.011719 -23.589844 C 66.066406 -23.589844 64.28125 -24.058594 62.660156 -24.988281 C 61.117188 -25.875 59.824219 -27.125 58.78125 -28.746094 C 56.800781 -31.8125 56.542969 -36.28125 58.011719 -42.148438 L 58.074219 -42.398438 L 58.15625 -42.640625 C 60.441406 -49.273438 62.605469 -54.71875 64.652344 -58.976562 C 66.589844 -63.011719 68.160156 -66.308594 69.363281 -68.871094 C 70.199219 -70.652344 70.617188 -72.050781 70.617188 -73.0625 C 70.617188 -73.417969 70.589844 -73.695312 70.535156 -73.886719 L 70.53125 -73.910156 C 70.550781 -73.867188 70.578125 -73.820312 70.617188 -73.773438 C 70.925781 -73.359375 71.273438 -73.082031 71.652344 -72.945312 C 71.582031 -72.972656 71.367188 -72.984375 71.011719 -72.984375 C 69.878906 -72.984375 69.148438 -72.863281 68.820312 -72.625 C 67.621094 -71.746094 66.542969 -70.875 65.59375 -70.015625 C 63.359375 -67.996094 60.589844 -66.988281 57.28125 -66.988281 C 54.695312 -66.988281 52.519531 -67.792969 50.757812 -69.410156 C 50.109375 -70.007812 49.328125 -70.734375 48.414062 -71.59375 C 48.152344 -71.839844 47.566406 -72.117188 46.652344 -72.417969 C 45.523438 -72.796875 43.703125 -72.984375 41.1875 -72.984375 C 35.714844 -72.984375 30.941406 -71.535156 26.863281 -68.636719 C 22.4375 -65.488281 18.726562 -61.402344 15.734375 -56.382812 C 12.605469 -51.132812 10.269531 -45.523438 8.730469 -39.550781 C 7.171875 -33.511719 6.390625 -27.796875 6.390625 -22.40625 C 6.390625 -17.90625 7.585938 -14.175781 9.976562 -11.207031 C 12.050781 -8.628906 14.882812 -7.339844 18.464844 -7.339844 C 21.105469 -7.339844 23.917969 -8.5 26.898438 -10.824219 C 30.082031 -13.304688 32.53125 -16.769531 34.242188 -21.21875 L 34.316406 -21.410156 L 34.402344 -21.597656 C 35.105469 -23.101562 35.972656 -24.324219 37.003906 -25.261719 C 38.496094 -26.625 40.214844 -27.355469 42.152344 -27.449219 C 43.25 -27.503906 44.28125 -27.347656 45.257812 -26.972656 C 46.453125 -26.511719 47.453125 -25.785156 48.253906 -24.785156 C 49.382812 -23.375 49.945312 -21.636719 49.945312 -19.566406 C 49.945312 -15.292969 49.050781 -11.050781 47.265625 -6.839844 C 45.539062 -2.769531 43.171875 0.953125 40.160156 4.332031 C 37.132812 7.730469 33.6875 10.492188 29.828125 12.605469 C 25.683594 14.878906 21.222656 16.015625 16.449219 16.015625 C 9.878906 15.882812 4.523438 14.207031 0.386719 10.980469 C -4.035156 7.53125 -6.542969 3.066406 -7.132812 -2.421875 C -7.035156 -1.636719 -6.742188 -0.898438 -6.246094 -0.210938 C -5.546875 0.765625 -4.621094 1.421875 -3.472656 1.757812 C -2.773438 1.960938 -2.097656 2.007812 -1.441406 1.902344 C -1.21875 1.867188 -1.042969 1.820312 -0.914062 1.769531 L -0.90625 1.773438 C -1.003906 1.832031 -1.121094 1.921875 -1.257812 2.03125 C -1.664062 2.363281 -2.125 2.828125 -2.648438 3.421875 C -3.675781 4.601562 -4.644531 6.320312 -5.550781 8.589844 C -6.425781 10.777344 -6.863281 13.488281 -6.863281 16.726562 C -6.863281 22.613281 -5.1875 27.15625 -1.832031 30.355469 C 1.601562 33.632812 6.683594 35.269531 13.414062 35.269531 C 18.28125 35.269531 22.605469 34.09375 26.382812 31.742188 C 30.292969 29.308594 33.921875 25.25 37.269531 19.5625 C 40.878906 13.433594 44.296875 5.171875 47.527344 -5.226562 L 51.488281 -17.96875 L 58.273438 -6.480469 C 58.472656 -6.148438 58.625 -5.949219 58.734375 -5.878906 C 58.707031 -5.894531 58.679688 -5.910156 58.644531 -5.917969 C 58.644531 -5.917969 58.664062 -5.917969 58.703125 -5.917969 C 61.148438 -5.917969 63.316406 -6.640625 65.199219 -8.085938 C 67.59375 -9.925781 69.816406 -12.449219 71.863281 -15.652344 C 74.140625 -19.21875 76.304688 -23.199219 78.351562 -27.589844 C 80.515625 -32.238281 82.773438 -37.019531 85.128906 -41.941406 C 84.867188 -41.414062 84.796875 -40.785156 84.921875 -40.050781 C 85.0625 -39.234375 85.394531 -38.589844 85.921875 -38.117188 C 85.738281 -38.285156 85.496094 -38.394531 85.199219 -38.453125 C 85.546875 -38.386719 85.964844 -38.4375 86.457031 -38.605469 C 87.222656 -38.867188 87.820312 -39.316406 88.242188 -39.957031 Z M 32.824219 -38.582031 C 34.082031 -38.582031 35.175781 -38.949219 36.097656 -39.675781 C 37.421875 -40.722656 38.464844 -41.992188 39.230469 -43.488281 C 39.957031 -44.902344 40.316406 -46.238281 40.316406 -47.5 C 40.316406 -48.378906 40.09375 -49.082031 39.652344 -49.613281 C 39.65625 -49.605469 39.660156 -49.601562 39.660156 -49.601562 C 39.617188 -49.632812 39.546875 -49.664062 39.453125 -49.699219 C 39.011719 -49.863281 38.378906 -49.945312 37.558594 -49.945312 C 36.355469 -49.945312 35.3125 -49.609375 34.421875 -48.933594 C 33.226562 -48.03125 32.285156 -46.871094 31.59375 -45.453125 C 30.886719 -44.011719 30.535156 -42.589844 30.535156 -41.1875 C 30.535156 -40.1875 30.773438 -39.371094 31.246094 -38.742188 C 31.222656 -38.769531 31.195312 -38.796875 31.167969 -38.820312 C 31.167969 -38.816406 31.191406 -38.808594 31.234375 -38.792969 C 31.582031 -38.652344 32.109375 -38.582031 32.824219 -38.582031 Z M 32.824219 -26.746094 C 27.90625 -26.746094 24.222656 -28.378906 21.777344 -31.640625 C 19.726562 -34.375 18.699219 -37.558594 18.699219 -41.1875 C 18.699219 -44.414062 19.453125 -47.566406 20.957031 -50.648438 C 22.472656 -53.757812 24.582031 -56.332031 27.28125 -58.371094 C 30.28125 -60.644531 33.707031 -61.78125 37.558594 -61.78125 C 42.449219 -61.78125 46.167969 -60.261719 48.71875 -57.21875 C 51.007812 -54.488281 52.152344 -51.25 52.152344 -47.5 C 52.152344 -44.339844 51.359375 -41.203125 49.769531 -38.097656 C 48.21875 -35.070312 46.109375 -32.5 43.433594 -30.386719 C 40.359375 -27.960938 36.824219 -26.746094 32.824219 -26.746094 Z M 32.824219 -26.746094 "/></g></g><g style="fill:#ffffff;fill-opacity:1;"><g transform="translate(275.344452, 162.368163)"><path style="stroke:none" d="M 31.71875 -79.453125 C 26.84375 -79.453125 22.574219 -80.546875 18.902344 -82.734375 C 16.496094 -84.167969 14.695312 -86.164062 13.5 -88.71875 C 12.441406 -90.972656 11.914062 -93.59375 11.914062 -96.574219 C 11.914062 -104.273438 14.351562 -109.730469 19.222656 -112.953125 C 23.316406 -115.660156 28.113281 -117.011719 33.613281 -117.011719 C 38.765625 -117.011719 43.222656 -115.804688 46.984375 -113.390625 C 49.523438 -111.765625 51.308594 -109.46875 52.351562 -106.507812 C 53.222656 -104.023438 53.519531 -101.125 53.238281 -97.808594 C 52.648438 -91.035156 50.066406 -86.175781 45.492188 -83.234375 C 41.570312 -80.714844 36.980469 -79.453125 31.71875 -79.453125 Z M 31.71875 -91.289062 C 34.664062 -91.289062 37.121094 -91.921875 39.089844 -93.191406 C 40.40625 -94.035156 41.191406 -95.910156 41.445312 -98.8125 C 41.664062 -101.386719 41.378906 -102.925781 40.59375 -103.429688 C 38.78125 -104.59375 36.453125 -105.175781 33.613281 -105.175781 C 30.484375 -105.175781 27.863281 -104.476562 25.75 -103.078125 C 24.417969 -102.199219 23.75 -100.03125 23.75 -96.574219 C 23.75 -94.609375 24.15625 -93.382812 24.964844 -92.902344 C 26.765625 -91.828125 29.019531 -91.289062 31.71875 -91.289062 Z M 14.203125 5.917969 C 10.617188 5.917969 7.46875 5.21875 4.75 3.824219 C 1.847656 2.332031 -0.445312 0.121094 -2.132812 -2.808594 C -4.867188 -7.5625 -6.234375 -13.199219 -6.234375 -19.726562 C -6.234375 -23.757812 -5.835938 -28 -5.035156 -32.449219 C -4.257812 -36.78125 -3.257812 -40.957031 -2.03125 -44.96875 C 1.792969 -56.871094 5.535156 -66.074219 9.207031 -72.578125 C 13.808594 -80.738281 19.523438 -84.820312 26.351562 -84.820312 C 30.105469 -84.820312 33.019531 -83.445312 35.097656 -80.695312 C 36.789062 -78.453125 37.636719 -75.492188 37.636719 -71.800781 C 37.636719 -67.945312 36.910156 -64.035156 35.460938 -60.066406 L 31.917969 -50.292969 C 30.996094 -47.742188 30.535156 -45.390625 30.535156 -43.238281 C 30.535156 -42.5625 30.597656 -42.035156 30.726562 -41.65625 C 30.753906 -41.574219 30.777344 -41.515625 30.800781 -41.476562 C 30.796875 -41.480469 30.789062 -41.492188 30.773438 -41.503906 C 30.933594 -41.34375 31.25 -41.265625 31.71875 -41.265625 C 32.621094 -41.265625 33.324219 -41.492188 33.828125 -41.949219 C 35.109375 -43.105469 36.40625 -44.648438 37.71875 -46.570312 C 38.753906 -48.128906 40.070312 -49.257812 41.667969 -49.957031 C 43.421875 -50.730469 45.273438 -50.878906 47.222656 -50.414062 C 49.839844 -49.785156 52.019531 -48.398438 53.753906 -46.25 C 54.839844 -44.910156 55.519531 -43.484375 55.789062 -41.976562 C 56.128906 -40.078125 55.828125 -38.277344 54.882812 -36.578125 L 54.808594 -36.445312 L 54.726562 -36.3125 C 53.816406 -34.859375 52.707031 -32.675781 51.394531 -29.761719 C 49.914062 -26.472656 48.140625 -22.921875 46.070312 -19.109375 C 43.917969 -15.144531 41.453125 -11.375 38.679688 -7.808594 C 35.703125 -3.980469 32.3125 -0.8125 28.511719 1.703125 C 24.261719 4.511719 19.492188 5.917969 14.203125 5.917969 Z M 14.203125 -5.917969 C 17.117188 -5.917969 19.710938 -6.667969 21.984375 -8.171875 C 24.707031 -9.96875 27.15625 -12.273438 29.335938 -15.074219 C 31.714844 -18.132812 33.824219 -21.359375 35.671875 -24.757812 C 37.597656 -28.3125 39.242188 -31.597656 40.601562 -34.621094 C 42.132812 -38.019531 43.496094 -40.675781 44.691406 -42.585938 L 49.707031 -39.449219 L 44.535156 -42.324219 C 44.113281 -41.570312 43.984375 -40.753906 44.140625 -39.882812 C 44.226562 -39.398438 44.367188 -39.039062 44.554688 -38.804688 C 44.507812 -38.863281 44.476562 -38.898438 44.457031 -38.910156 L 44.460938 -38.902344 C 45.09375 -38.75 45.75 -38.824219 46.425781 -39.121094 C 46.941406 -39.347656 47.300781 -39.609375 47.496094 -39.902344 C 45.652344 -37.199219 43.742188 -34.953125 41.761719 -33.164062 C 39.003906 -30.675781 35.65625 -29.429688 31.71875 -29.429688 C 27.980469 -29.429688 24.875 -30.664062 22.40625 -33.136719 C 19.933594 -35.605469 18.699219 -38.972656 18.699219 -43.238281 C 18.699219 -46.769531 19.394531 -50.464844 20.789062 -54.332031 L 24.34375 -64.125 C 25.316406 -66.785156 25.800781 -69.34375 25.800781 -71.800781 C 25.800781 -72.496094 25.75 -73.046875 25.644531 -73.460938 C 25.617188 -73.5625 25.59375 -73.636719 25.574219 -73.683594 C 25.585938 -73.65625 25.613281 -73.613281 25.65625 -73.558594 C 25.824219 -73.332031 26.042969 -73.160156 26.3125 -73.042969 C 26.390625 -73.007812 26.457031 -72.984375 26.511719 -72.976562 C 26.484375 -72.980469 26.429688 -72.984375 26.351562 -72.984375 C 24.132812 -72.984375 21.855469 -70.910156 19.515625 -66.761719 C 16.238281 -60.957031 12.832031 -52.539062 9.289062 -41.507812 C 8.199219 -37.945312 7.308594 -34.230469 6.613281 -30.355469 C 5.941406 -26.601562 5.601562 -23.054688 5.601562 -19.726562 C 5.601562 -15.308594 6.445312 -11.636719 8.128906 -8.710938 C 8.652344 -7.800781 9.328125 -7.132812 10.160156 -6.703125 C 11.179688 -6.179688 12.527344 -5.917969 14.203125 -5.917969 Z M 14.203125 -5.917969 "/></g></g><g style="fill:#ffffff;fill-opacity:1;"><g transform="translate(40.400425, 287.74747)"><path style="stroke:none" d="M 13.414062 5.917969 C 5.804688 5.917969 0.304688 3.539062 -3.085938 -1.222656 C -6.027344 -5.355469 -7.496094 -10.363281 -7.496094 -16.253906 C -7.496094 -20.664062 -6.953125 -25.4375 -5.871094 -30.574219 C -4.816406 -35.554688 -3.460938 -40.425781 -1.800781 -45.1875 L 11.855469 -83.871094 C 15.753906 -94.742188 19.566406 -103.027344 23.292969 -108.730469 C 27.933594 -115.828125 33.421875 -119.378906 39.765625 -119.378906 C 42.492188 -119.378906 44.839844 -118.785156 46.804688 -117.601562 C 49.066406 -116.242188 50.636719 -114.257812 51.523438 -111.660156 C 52.890625 -107.644531 52.003906 -102.433594 48.871094 -96.027344 C 44.605469 -87.390625 40.945312 -79.421875 37.886719 -72.121094 C 34.886719 -64.945312 32.523438 -58.171875 30.804688 -51.796875 C 30.03125 -48.984375 29.476562 -46.324219 29.144531 -43.804688 C 28.957031 -42.390625 29.03125 -41.410156 29.363281 -40.859375 C 29.21875 -41.101562 29.070312 -41.25 28.925781 -41.3125 C 29.253906 -41.175781 29.816406 -41.109375 30.613281 -41.109375 C 32.117188 -41.109375 33.386719 -41.46875 34.425781 -42.1875 C 35.859375 -43.175781 37.207031 -44.621094 38.472656 -46.519531 C 39.566406 -48.164062 40.957031 -49.324219 42.636719 -50.003906 C 44.414062 -50.726562 46.285156 -50.820312 48.25 -50.292969 C 50.800781 -49.605469 52.921875 -48.269531 54.613281 -46.28125 C 55.820312 -44.859375 56.53125 -43.300781 56.742188 -41.605469 C 56.980469 -39.726562 56.589844 -37.941406 55.570312 -36.25 C 54.617188 -34.71875 53.457031 -32.464844 52.089844 -29.484375 C 50.546875 -26.125 48.707031 -22.558594 46.574219 -18.785156 C 44.351562 -14.855469 41.761719 -11.097656 38.808594 -7.515625 C 35.65625 -3.695312 32.089844 -0.5625 28.113281 1.882812 C 23.742188 4.574219 18.84375 5.917969 13.414062 5.917969 Z M 13.414062 -5.917969 C 16.609375 -5.917969 19.441406 -6.675781 21.910156 -8.195312 C 24.769531 -9.957031 27.359375 -12.242188 29.679688 -15.050781 C 32.191406 -18.097656 34.390625 -21.28125 36.269531 -24.609375 C 38.242188 -28.09375 39.925781 -31.367188 41.332031 -34.425781 C 42.910156 -37.863281 44.273438 -40.5 45.421875 -42.335938 C 45.039062 -41.695312 44.894531 -40.960938 45 -40.136719 C 45.078125 -39.496094 45.277344 -38.988281 45.59375 -38.617188 C 45.492188 -38.734375 45.351562 -38.816406 45.171875 -38.863281 C 45.765625 -38.703125 46.402344 -38.761719 47.074219 -39.035156 C 47.652344 -39.265625 48.066406 -39.574219 48.320312 -39.957031 C 46.21875 -36.804688 43.832031 -34.304688 41.164062 -32.453125 C 38.097656 -30.332031 34.582031 -29.273438 30.613281 -29.273438 C 25.234375 -29.273438 21.445312 -31.089844 19.242188 -34.726562 C 17.46875 -37.648438 16.859375 -41.191406 17.410156 -45.355469 C 17.8125 -48.410156 18.46875 -51.585938 19.378906 -54.878906 C 21.234375 -61.761719 23.765625 -69.03125 26.96875 -76.6875 C 30.121094 -84.21875 33.875 -92.398438 38.238281 -101.226562 C 39.234375 -103.261719 39.878906 -104.96875 40.171875 -106.347656 C 40.339844 -107.140625 40.390625 -107.636719 40.320312 -107.84375 C 40.363281 -107.71875 40.488281 -107.589844 40.695312 -107.464844 C 40.722656 -107.449219 40.742188 -107.4375 40.757812 -107.433594 C 40.730469 -107.441406 40.695312 -107.453125 40.644531 -107.464844 C 40.421875 -107.515625 40.128906 -107.542969 39.765625 -107.542969 C 37.691406 -107.542969 35.503906 -105.78125 33.199219 -102.253906 C 29.984375 -97.332031 26.589844 -89.890625 23.019531 -79.929688 L 9.375 -41.289062 C 7.878906 -37.003906 6.660156 -32.617188 5.710938 -28.128906 C 4.796875 -23.796875 4.339844 -19.839844 4.339844 -16.253906 C 4.339844 -12.886719 5.078125 -10.164062 6.558594 -8.085938 C 7.585938 -6.640625 9.871094 -5.917969 13.414062 -5.917969 Z M 13.414062 -5.917969 "/></g></g><g style="fill:#ffffff;fill-opacity:1;"><g transform="translate(80.16472, 287.74747)"><path style="stroke:none" d="M 16.726562 5.917969 C 13.039062 5.917969 9.738281 5.125 6.832031 3.539062 C 3.890625 1.933594 1.460938 -0.417969 -0.457031 -3.511719 C -3.78125 -8.886719 -5.445312 -15.65625 -5.445312 -23.828125 C -5.445312 -28.675781 -4.847656 -33.8125 -3.648438 -39.230469 C -2.457031 -44.617188 -0.703125 -49.910156 1.617188 -55.113281 C 3.992188 -60.445312 6.984375 -65.292969 10.585938 -69.652344 C 14.328125 -74.179688 18.6875 -77.808594 23.664062 -80.539062 C 28.863281 -83.394531 34.703125 -84.820312 41.1875 -84.820312 C 44.984375 -84.820312 48.050781 -84.429688 50.394531 -83.648438 C 52.957031 -82.792969 55 -81.648438 56.527344 -80.210938 C 57.402344 -79.390625 58.144531 -78.695312 58.757812 -78.136719 C 58.257812 -78.59375 57.765625 -78.824219 57.28125 -78.824219 C 57.515625 -78.824219 57.679688 -78.839844 57.777344 -78.875 C 57.738281 -78.859375 57.695312 -78.832031 57.652344 -78.792969 C 58.910156 -79.929688 60.304688 -81.058594 61.839844 -82.179688 C 64.246094 -83.941406 67.304688 -84.820312 71.011719 -84.820312 C 75.089844 -84.820312 78.113281 -83.503906 80.085938 -80.875 C 81.664062 -78.769531 82.453125 -76.167969 82.453125 -73.0625 C 82.453125 -69.082031 81.382812 -65.195312 79.242188 -61.398438 C 77.753906 -58.753906 76.164062 -55.25 74.480469 -50.890625 L 74.417969 -50.730469 L 74.347656 -50.574219 C 73.203125 -48.058594 72.433594 -45.898438 72.035156 -44.09375 C 71.738281 -42.742188 71.664062 -41.730469 71.816406 -41.0625 C 71.847656 -40.925781 71.867188 -40.84375 71.882812 -40.820312 C 71.820312 -40.925781 71.730469 -41.019531 71.613281 -41.105469 C 71.566406 -41.140625 71.523438 -41.167969 71.480469 -41.1875 L 71.5 -41.183594 C 71.679688 -41.132812 71.9375 -41.109375 72.273438 -41.109375 C 73.75 -41.109375 74.972656 -41.453125 75.945312 -42.144531 C 77.304688 -43.109375 78.5625 -44.519531 79.722656 -46.375 L 79.769531 -46.449219 L 79.816406 -46.519531 C 80.902344 -48.148438 82.265625 -49.304688 83.914062 -49.988281 C 85.714844 -50.734375 87.597656 -50.832031 89.570312 -50.277344 C 92.046875 -49.585938 94.121094 -48.253906 95.796875 -46.28125 C 96.941406 -44.9375 97.648438 -43.472656 97.925781 -41.890625 C 98.242188 -40.082031 97.980469 -38.335938 97.132812 -36.644531 C 95.242188 -32.96875 93.230469 -28.917969 91.097656 -24.492188 C 88.835938 -19.804688 86.328125 -15.3125 83.566406 -11.007812 C 80.585938 -6.355469 77.15625 -2.484375 73.277344 0.605469 C 68.832031 4.148438 63.710938 5.917969 57.914062 5.917969 C 54.128906 5.917969 50.816406 5.105469 47.976562 3.480469 C 45.023438 1.792969 42.714844 -0.675781 41.046875 -3.929688 C 38.210938 -9.46875 37.359375 -16.121094 38.484375 -23.890625 L 44.34375 -23.039062 L 44.34375 -17.121094 L 43.710938 -17.121094 L 43.710938 -23.039062 L 49.023438 -20.425781 C 45.5625 -13.390625 41.269531 -7.398438 36.144531 -2.449219 C 30.371094 3.128906 23.898438 5.917969 16.726562 5.917969 Z M 16.726562 -5.917969 C 20.707031 -5.917969 24.441406 -7.601562 27.921875 -10.964844 C 32.054688 -14.957031 35.546875 -19.851562 38.402344 -25.652344 L 40.027344 -28.957031 L 51.183594 -28.957031 L 50.199219 -22.1875 C 49.433594 -16.910156 49.894531 -12.625 51.582031 -9.324219 C 52.179688 -8.160156 52.933594 -7.316406 53.847656 -6.796875 C 54.871094 -6.210938 56.226562 -5.917969 57.914062 -5.917969 C 60.953125 -5.917969 63.617188 -6.828125 65.902344 -8.652344 C 68.757812 -10.929688 71.324219 -13.84375 73.605469 -17.394531 C 76.105469 -21.296875 78.382812 -25.378906 80.4375 -29.632812 C 82.613281 -34.152344 84.652344 -38.253906 86.546875 -41.941406 C 86.230469 -41.300781 86.136719 -40.605469 86.269531 -39.851562 C 86.363281 -39.320312 86.53125 -38.90625 86.78125 -38.617188 C 86.667969 -38.75 86.535156 -38.835938 86.378906 -38.878906 C 87.035156 -38.695312 87.726562 -38.753906 88.445312 -39.054688 C 89.015625 -39.289062 89.421875 -39.589844 89.664062 -39.957031 L 84.738281 -43.238281 L 89.757812 -40.101562 C 87.761719 -36.90625 85.445312 -34.371094 82.800781 -32.496094 C 79.777344 -30.347656 76.269531 -29.273438 72.273438 -29.273438 C 69.246094 -29.273438 66.691406 -30.035156 64.609375 -31.5625 C 62.378906 -33.203125 60.929688 -35.503906 60.265625 -38.472656 C 59.292969 -42.8125 60.394531 -48.480469 63.574219 -55.46875 L 68.960938 -53.023438 L 63.441406 -55.15625 C 65.332031 -60.050781 67.164062 -64.070312 68.933594 -67.210938 C 70.054688 -69.203125 70.617188 -71.152344 70.617188 -73.0625 C 70.617188 -73.417969 70.589844 -73.695312 70.535156 -73.886719 L 70.53125 -73.910156 C 70.550781 -73.867188 70.578125 -73.820312 70.617188 -73.773438 C 70.925781 -73.359375 71.273438 -73.082031 71.652344 -72.945312 C 71.582031 -72.972656 71.367188 -72.984375 71.011719 -72.984375 C 69.878906 -72.984375 69.148438 -72.863281 68.820312 -72.625 C 67.621094 -71.746094 66.542969 -70.875 65.59375 -70.015625 C 63.359375 -67.996094 60.589844 -66.988281 57.28125 -66.988281 C 54.695312 -66.988281 52.519531 -67.792969 50.757812 -69.410156 C 50.109375 -70.007812 49.328125 -70.734375 48.414062 -71.59375 C 48.152344 -71.839844 47.566406 -72.117188 46.652344 -72.417969 C 45.523438 -72.796875 43.703125 -72.984375 41.1875 -72.984375 C 36.726562 -72.984375 32.785156 -72.042969 29.359375 -70.164062 C 25.707031 -68.160156 22.492188 -65.476562 19.710938 -62.113281 C 16.792969 -58.582031 14.363281 -54.644531 12.429688 -50.296875 C 10.433594 -45.824219 8.925781 -41.28125 7.910156 -36.675781 C 6.898438 -32.097656 6.390625 -27.816406 6.390625 -23.828125 C 6.390625 -17.902344 7.464844 -13.207031 9.609375 -9.742188 C 10.425781 -8.421875 11.390625 -7.457031 12.5 -6.851562 C 13.640625 -6.230469 15.050781 -5.917969 16.726562 -5.917969 Z M 32.507812 -38.582031 C 33.902344 -38.582031 35.089844 -38.964844 36.078125 -39.722656 C 37.425781 -40.761719 38.480469 -42.015625 39.230469 -43.488281 C 39.957031 -44.902344 40.316406 -46.238281 40.316406 -47.5 C 40.316406 -48.496094 40.160156 -49.152344 39.84375 -49.46875 C 39.523438 -49.785156 38.921875 -49.945312 38.03125 -49.945312 C 36.59375 -49.945312 35.394531 -49.59375 34.441406 -48.890625 C 33.222656 -47.992188 32.273438 -46.84375 31.59375 -45.453125 C 30.886719 -44.011719 30.535156 -42.589844 30.535156 -41.1875 C 30.535156 -40.109375 30.714844 -39.375 31.078125 -38.984375 C 31.328125 -38.71875 31.804688 -38.582031 32.507812 -38.582031 Z M 32.507812 -26.746094 C 28.371094 -26.746094 25.007812 -28.136719 22.417969 -30.921875 C 19.9375 -33.582031 18.699219 -37.003906 18.699219 -41.1875 C 18.699219 -44.414062 19.453125 -47.566406 20.957031 -50.648438 C 22.484375 -53.78125 24.640625 -56.371094 27.417969 -58.417969 C 30.460938 -60.660156 34 -61.78125 38.03125 -61.78125 C 42.191406 -61.78125 45.582031 -60.464844 48.210938 -57.835938 C 50.839844 -55.210938 52.152344 -51.761719 52.152344 -47.5 C 52.152344 -44.339844 51.359375 -41.203125 49.769531 -38.097656 C 48.207031 -35.046875 46.050781 -32.460938 43.296875 -30.339844 C 40.179688 -27.945312 36.585938 -26.746094 32.507812 -26.746094 Z M 32.507812 -26.746094 "/></g></g><g style="fill:#ffffff;fill-opacity:1;"><g transform="translate(161.271269, 287.74747)"><path style="stroke:none" d="M 9.941406 5.917969 C 4.507812 5.917969 0.207031 4.164062 -2.96875 0.65625 C -5.988281 -2.679688 -7.496094 -6.738281 -7.496094 -11.519531 C -7.496094 -15.5 -7.050781 -20.398438 -6.167969 -26.21875 C -5.289062 -31.976562 -3.921875 -38.179688 -2.070312 -44.828125 C -0.21875 -51.253906 1.820312 -57.265625 4.046875 -62.863281 C 6.359375 -68.671875 8.765625 -73.4375 11.261719 -77.152344 C 14.695312 -82.265625 18.464844 -84.820312 22.566406 -84.820312 C 24.4375 -84.820312 26.097656 -84.503906 27.546875 -83.875 C 29.457031 -83.046875 30.90625 -81.753906 31.898438 -80 C 33.09375 -77.886719 33.691406 -75.519531 33.691406 -72.90625 C 33.691406 -72.121094 33.742188 -71.597656 33.839844 -71.339844 C 33.65625 -71.8125 33.253906 -72.203125 32.628906 -72.515625 C 32.078125 -72.792969 31.507812 -72.917969 30.917969 -72.890625 C 30.601562 -72.875 30.355469 -72.828125 30.167969 -72.746094 C 30.503906 -72.894531 31.046875 -73.34375 31.792969 -74.089844 C 35.226562 -77.402344 38.789062 -79.980469 42.484375 -81.828125 C 46.472656 -83.820312 50.671875 -84.820312 55.074219 -84.820312 C 61.785156 -84.820312 66.894531 -82.671875 70.390625 -78.378906 C 73.59375 -74.449219 75.195312 -69.785156 75.195312 -64.382812 C 75.195312 -60.9375 74.648438 -57.75 73.558594 -54.824219 C 72.707031 -52.53125 71.855469 -50.292969 71 -48.109375 C 70.429688 -46.644531 70.144531 -44.96875 70.144531 -43.082031 C 70.144531 -42.382812 70.207031 -41.832031 70.335938 -41.433594 C 70.363281 -41.339844 70.394531 -41.273438 70.417969 -41.226562 C 70.414062 -41.230469 70.40625 -41.242188 70.386719 -41.261719 C 70.363281 -41.285156 70.34375 -41.304688 70.320312 -41.316406 C 70.339844 -41.308594 70.375 -41.292969 70.425781 -41.273438 C 70.746094 -41.164062 71.203125 -41.109375 71.800781 -41.109375 C 72.664062 -41.109375 73.339844 -41.339844 73.832031 -41.800781 C 75.144531 -43.027344 76.46875 -44.617188 77.800781 -46.570312 C 78.871094 -48.179688 80.25 -49.324219 81.929688 -50.003906 C 83.707031 -50.726562 85.578125 -50.820312 87.542969 -50.292969 C 90.09375 -49.605469 92.214844 -48.269531 93.90625 -46.28125 C 95.113281 -44.859375 95.824219 -43.300781 96.035156 -41.605469 C 96.273438 -39.726562 95.878906 -37.941406 94.863281 -36.25 C 93.910156 -34.71875 92.75 -32.464844 91.382812 -29.484375 C 89.839844 -26.125 88 -22.558594 85.867188 -18.785156 C 83.644531 -14.855469 81.054688 -11.097656 78.101562 -7.515625 C 74.949219 -3.695312 71.382812 -0.5625 67.40625 1.882812 C 63.035156 4.574219 58.136719 5.917969 52.707031 5.917969 C 49.355469 5.917969 46.410156 5.324219 43.878906 4.132812 C 41.074219 2.816406 38.863281 0.839844 37.246094 -1.800781 C 34.664062 -6.007812 33.375 -10.878906 33.375 -16.410156 C 33.375 -20.996094 34.011719 -25.382812 35.289062 -29.574219 C 36.425781 -33.3125 37.566406 -36.734375 38.710938 -39.839844 C 39.570312 -42.175781 40.003906 -44.046875 40.003906 -45.445312 C 40.003906 -45.550781 39.996094 -45.632812 39.988281 -45.691406 C 39.992188 -45.671875 40 -45.644531 40.019531 -45.597656 C 40.101562 -45.390625 40.234375 -45.210938 40.414062 -45.058594 C 40.457031 -45.019531 40.488281 -44.996094 40.507812 -44.992188 C 40.382812 -45.03125 40.1875 -45.050781 39.925781 -45.050781 C 38.507812 -45.050781 37.089844 -44.339844 35.667969 -42.917969 C 33.679688 -40.933594 32.050781 -38.28125 30.773438 -34.960938 C 29.457031 -31.539062 28.800781 -27.828125 28.800781 -23.828125 L 28.800781 -16.726562 C 28.800781 -13.621094 28.425781 -10.546875 27.683594 -7.507812 C 26.765625 -3.765625 24.945312 -0.648438 22.21875 1.84375 C 19.246094 4.558594 15.15625 5.917969 9.941406 5.917969 Z M 9.941406 -5.917969 C 12.09375 -5.917969 13.523438 -6.242188 14.234375 -6.890625 C 15.1875 -7.765625 15.839844 -8.910156 16.1875 -10.324219 C 16.703125 -12.4375 16.964844 -14.574219 16.964844 -16.726562 L 16.964844 -23.828125 C 16.964844 -29.292969 17.882812 -34.421875 19.726562 -39.207031 C 21.605469 -44.09375 24.128906 -48.121094 27.296875 -51.289062 C 31.03125 -55.023438 35.238281 -56.886719 39.925781 -56.886719 C 43.171875 -56.886719 45.902344 -55.941406 48.113281 -54.042969 C 50.597656 -51.914062 51.839844 -49.050781 51.839844 -45.445312 C 51.839844 -42.640625 51.164062 -39.40625 49.816406 -35.746094 C 48.75 -32.855469 47.683594 -29.648438 46.613281 -26.128906 C 45.679688 -23.0625 45.210938 -19.820312 45.210938 -16.410156 C 45.210938 -13.105469 45.917969 -10.296875 47.335938 -7.984375 C 48.179688 -6.605469 49.972656 -5.917969 52.707031 -5.917969 C 55.902344 -5.917969 58.734375 -6.675781 61.203125 -8.195312 C 64.0625 -9.957031 66.652344 -12.242188 68.972656 -15.050781 C 71.484375 -18.097656 73.683594 -21.28125 75.5625 -24.609375 C 77.535156 -28.09375 79.21875 -31.367188 80.625 -34.425781 C 82.203125 -37.863281 83.566406 -40.5 84.714844 -42.335938 C 84.332031 -41.695312 84.1875 -40.960938 84.292969 -40.136719 C 84.371094 -39.496094 84.570312 -38.988281 84.886719 -38.617188 C 84.785156 -38.734375 84.644531 -38.816406 84.464844 -38.863281 C 85.058594 -38.703125 85.695312 -38.761719 86.367188 -39.035156 C 86.945312 -39.265625 87.347656 -39.558594 87.578125 -39.902344 C 85.753906 -37.230469 83.867188 -34.980469 81.917969 -33.15625 C 79.152344 -30.566406 75.777344 -29.273438 71.800781 -29.273438 C 67.59375 -29.273438 64.277344 -30.535156 61.851562 -33.0625 C 59.488281 -35.523438 58.308594 -38.863281 58.308594 -43.082031 C 58.308594 -46.453125 58.863281 -49.5625 59.976562 -52.410156 C 60.804688 -54.539062 61.636719 -56.71875 62.464844 -58.953125 C 63.0625 -60.546875 63.359375 -62.359375 63.359375 -64.382812 C 63.359375 -66.976562 62.644531 -69.152344 61.214844 -70.902344 C 60.085938 -72.289062 58.039062 -72.984375 55.074219 -72.984375 C 52.53125 -72.984375 50.101562 -72.402344 47.777344 -71.242188 C 45.160156 -69.933594 42.625 -68.09375 40.164062 -65.722656 C 35.628906 -61.1875 31.351562 -59.921875 27.335938 -61.929688 C 23.683594 -63.757812 21.855469 -67.414062 21.855469 -72.90625 C 21.855469 -73.445312 21.769531 -73.867188 21.59375 -74.175781 C 21.90625 -73.628906 22.316406 -73.242188 22.832031 -73.019531 C 22.917969 -72.980469 22.972656 -72.960938 23.003906 -72.957031 C 22.898438 -72.972656 22.753906 -72.984375 22.566406 -72.984375 C 22.839844 -72.984375 23.074219 -73.023438 23.277344 -73.105469 C 23.296875 -73.113281 23.3125 -73.121094 23.324219 -73.125 C 23.324219 -73.125 23.320312 -73.125 23.3125 -73.121094 C 23.265625 -73.09375 23.207031 -73.050781 23.136719 -72.996094 C 22.558594 -72.535156 21.875 -71.722656 21.085938 -70.550781 C 19.058594 -67.535156 17.046875 -63.511719 15.046875 -58.488281 C 12.960938 -53.25 11.054688 -47.636719 9.332031 -41.648438 C 7.605469 -35.460938 6.339844 -29.722656 5.535156 -24.4375 C 4.738281 -19.207031 4.339844 -14.902344 4.339844 -11.519531 C 4.339844 -9.777344 4.828125 -8.367188 5.808594 -7.285156 C 6.632812 -6.375 8.011719 -5.917969 9.941406 -5.917969 Z M 9.941406 -5.917969 "/></g></g><g style="fill:#ffffff;fill-opacity:1;"><g transform="translate(240.326469, 287.74747)"><path style="stroke:none" d="M 18.464844 5.917969 C 14.472656 5.917969 10.9375 5.1875 7.859375 3.730469 C 4.605469 2.1875 1.949219 -0.113281 -0.101562 -3.171875 C -3.664062 -8.484375 -5.445312 -14.894531 -5.445312 -22.40625 C -5.445312 -28.800781 -4.539062 -35.5 -2.730469 -42.507812 C -0.90625 -49.578125 1.859375 -56.222656 5.570312 -62.445312 C 9.414062 -68.890625 14.226562 -74.167969 20.003906 -78.28125 C 26.132812 -82.640625 33.195312 -84.820312 41.1875 -84.820312 C 45.144531 -84.820312 48.359375 -84.292969 50.835938 -83.246094 C 53.382812 -82.164062 55.398438 -80.796875 56.878906 -79.140625 C 57.847656 -78.058594 58.679688 -77.082031 59.378906 -76.207031 C 58.824219 -76.898438 58.125 -77.246094 57.28125 -77.246094 C 56.367188 -77.246094 55.527344 -77.007812 54.761719 -76.53125 C 54.292969 -76.242188 53.914062 -75.898438 53.628906 -75.503906 C 53.542969 -75.382812 53.488281 -75.292969 53.464844 -75.242188 C 53.515625 -75.359375 53.570312 -75.527344 53.632812 -75.75 L 56.003906 -84.207031 C 57.117188 -88.167969 58.824219 -92.9375 61.121094 -98.511719 C 63.328125 -103.863281 65.578125 -107.984375 67.859375 -110.886719 C 70.382812 -114.09375 72.960938 -116.3125 75.59375 -117.550781 C 78.179688 -118.769531 80.703125 -119.378906 83.164062 -119.378906 C 85.828125 -119.378906 88.140625 -118.65625 90.09375 -117.214844 C 92.003906 -115.800781 93.378906 -113.832031 94.21875 -111.308594 C 95.609375 -107.136719 94.921875 -102.078125 92.15625 -96.132812 L 86.792969 -98.625 L 92.304688 -96.472656 L 74.414062 -50.71875 L 74.347656 -50.574219 C 73.203125 -48.058594 72.433594 -45.898438 72.035156 -44.09375 C 71.738281 -42.742188 71.664062 -41.730469 71.816406 -41.0625 C 71.847656 -40.925781 71.867188 -40.84375 71.882812 -40.820312 C 71.820312 -40.925781 71.730469 -41.019531 71.613281 -41.105469 C 71.566406 -41.140625 71.523438 -41.167969 71.480469 -41.1875 L 71.5 -41.183594 C 71.679688 -41.132812 71.9375 -41.109375 72.273438 -41.109375 C 73.75 -41.109375 74.972656 -41.453125 75.945312 -42.144531 C 77.304688 -43.109375 78.5625 -44.519531 79.722656 -46.375 L 79.769531 -46.449219 L 79.816406 -46.519531 C 80.902344 -48.148438 82.265625 -49.304688 83.914062 -49.988281 C 85.714844 -50.734375 87.597656 -50.832031 89.570312 -50.277344 C 92.046875 -49.585938 94.121094 -48.253906 95.796875 -46.28125 C 96.941406 -44.9375 97.648438 -43.472656 97.925781 -41.890625 C 98.242188 -40.082031 97.980469 -38.335938 97.132812 -36.644531 C 95.242188 -32.96875 93.230469 -28.917969 91.097656 -24.492188 C 88.835938 -19.804688 86.328125 -15.3125 83.566406 -11.007812 C 80.585938 -6.355469 77.15625 -2.484375 73.277344 0.605469 C 68.832031 4.148438 63.710938 5.917969 57.914062 5.917969 C 54.308594 5.917969 51.109375 5.089844 48.3125 3.4375 C 45.511719 1.78125 43.25 -0.625 41.519531 -3.785156 C 38.484375 -9.328125 37.46875 -16 38.472656 -23.796875 L 44.34375 -23.039062 L 44.34375 -17.121094 L 43.710938 -17.121094 L 43.710938 -23.039062 L 48.988281 -20.359375 C 45.453125 -13.402344 41.292969 -7.472656 36.503906 -2.570312 C 30.976562 3.089844 24.964844 5.917969 18.464844 5.917969 Z M 18.464844 -5.917969 C 21.640625 -5.917969 24.832031 -7.558594 28.035156 -10.839844 C 31.980469 -14.878906 35.449219 -19.839844 38.4375 -25.71875 L 40.082031 -28.957031 L 51.074219 -28.957031 L 50.210938 -22.28125 C 49.535156 -17.03125 50.097656 -12.761719 51.898438 -9.46875 C 52.589844 -8.210938 53.402344 -7.304688 54.339844 -6.75 C 55.277344 -6.195312 56.46875 -5.917969 57.914062 -5.917969 C 60.953125 -5.917969 63.617188 -6.828125 65.902344 -8.652344 C 68.757812 -10.929688 71.324219 -13.84375 73.605469 -17.394531 C 76.105469 -21.296875 78.382812 -25.378906 80.4375 -29.632812 C 82.613281 -34.152344 84.652344 -38.253906 86.546875 -41.941406 C 86.230469 -41.300781 86.136719 -40.605469 86.269531 -39.851562 C 86.363281 -39.320312 86.53125 -38.90625 86.78125 -38.617188 C 86.667969 -38.75 86.535156 -38.835938 86.378906 -38.878906 C 87.035156 -38.695312 87.726562 -38.753906 88.445312 -39.054688 C 89.015625 -39.289062 89.421875 -39.589844 89.664062 -39.957031 L 84.738281 -43.238281 L 89.757812 -40.101562 C 87.761719 -36.90625 85.445312 -34.371094 82.800781 -32.496094 C 79.777344 -30.347656 76.269531 -29.273438 72.273438 -29.273438 C 69.246094 -29.273438 66.691406 -30.035156 64.609375 -31.5625 C 62.378906 -33.203125 60.929688 -35.503906 60.265625 -38.472656 C 59.292969 -42.8125 60.394531 -48.480469 63.574219 -55.46875 L 68.960938 -53.023438 L 63.449219 -55.175781 L 81.347656 -100.953125 L 81.425781 -101.121094 C 82.253906 -102.898438 82.773438 -104.425781 82.988281 -105.703125 C 83.125 -106.535156 83.128906 -107.15625 82.992188 -107.566406 C 82.9375 -107.726562 82.890625 -107.835938 82.855469 -107.890625 C 82.894531 -107.832031 82.964844 -107.765625 83.058594 -107.695312 C 83.164062 -107.617188 83.269531 -107.5625 83.367188 -107.53125 C 83.34375 -107.539062 83.277344 -107.542969 83.164062 -107.542969 C 82.464844 -107.542969 81.621094 -107.308594 80.632812 -106.84375 C 79.6875 -106.398438 78.53125 -105.304688 77.160156 -103.566406 C 75.550781 -101.523438 73.855469 -98.335938 72.066406 -94.007812 C 69.941406 -88.851562 68.386719 -84.523438 67.398438 -81.011719 L 65.035156 -72.582031 C 64.582031 -70.957031 63.980469 -69.617188 63.222656 -68.570312 C 62.597656 -67.703125 61.859375 -67.003906 61.003906 -66.476562 C 59.859375 -65.765625 58.617188 -65.410156 57.28125 -65.410156 C 54.335938 -65.410156 51.953125 -66.542969 50.136719 -68.8125 C 49.574219 -69.519531 48.878906 -70.328125 48.058594 -71.246094 C 47.753906 -71.589844 47.136719 -71.957031 46.214844 -72.347656 C 45.214844 -72.773438 43.539062 -72.984375 41.1875 -72.984375 C 35.714844 -72.984375 30.941406 -71.535156 26.863281 -68.636719 C 22.4375 -65.488281 18.726562 -61.402344 15.734375 -56.382812 C 12.605469 -51.132812 10.269531 -45.523438 8.730469 -39.550781 C 7.171875 -33.511719 6.390625 -27.796875 6.390625 -22.40625 C 6.390625 -17.296875 7.503906 -13.082031 9.726562 -9.765625 C 11.449219 -7.199219 14.359375 -5.917969 18.464844 -5.917969 Z M 32.824219 -38.582031 C 34.082031 -38.582031 35.175781 -38.949219 36.097656 -39.675781 C 37.421875 -40.722656 38.464844 -41.992188 39.230469 -43.488281 C 39.957031 -44.902344 40.316406 -46.238281 40.316406 -47.5 C 40.316406 -48.378906 40.09375 -49.082031 39.652344 -49.613281 C 39.65625 -49.605469 39.660156 -49.601562 39.660156 -49.601562 C 39.617188 -49.632812 39.546875 -49.664062 39.453125 -49.699219 C 39.011719 -49.863281 38.378906 -49.945312 37.558594 -49.945312 C 36.355469 -49.945312 35.3125 -49.609375 34.421875 -48.933594 C 33.226562 -48.03125 32.285156 -46.871094 31.59375 -45.453125 C 30.886719 -44.011719 30.535156 -42.589844 30.535156 -41.1875 C 30.535156 -40.1875 30.773438 -39.371094 31.246094 -38.742188 C 31.222656 -38.769531 31.195312 -38.796875 31.167969 -38.820312 C 31.167969 -38.816406 31.191406 -38.808594 31.234375 -38.792969 C 31.582031 -38.652344 32.109375 -38.582031 32.824219 -38.582031 Z M 32.824219 -26.746094 C 27.90625 -26.746094 24.222656 -28.378906 21.777344 -31.640625 C 19.726562 -34.375 18.699219 -37.558594 18.699219 -41.1875 C 18.699219 -44.414062 19.453125 -47.566406 20.957031 -50.648438 C 22.472656 -53.757812 24.582031 -56.332031 27.28125 -58.371094 C 30.28125 -60.644531 33.707031 -61.78125 37.558594 -61.78125 C 42.449219 -61.78125 46.167969 -60.261719 48.71875 -57.21875 C 51.007812 -54.488281 52.152344 -51.25 52.152344 -47.5 C 52.152344 -44.339844 51.359375 -41.203125 49.769531 -38.097656 C 48.21875 -35.070312 46.109375 -32.5 43.433594 -30.386719 C 40.359375 -27.960938 36.824219 -26.746094 32.824219 -26.746094 Z M 32.824219 -26.746094 "/></g></g><g style="fill:#ffffff;fill-opacity:1;"><g transform="translate(321.433019, 287.74747)"><path style="stroke:none" d="M 17.988281 7.496094 C 12.777344 7.496094 8.28125 5.601562 4.496094 1.816406 C 0.707031 -1.96875 -1.183594 -6.464844 -1.183594 -11.675781 C -1.183594 -17.015625 0.722656 -21.554688 4.535156 -25.292969 C 8.316406 -29 12.800781 -30.851562 17.988281 -30.851562 C 23.304688 -30.851562 27.832031 -28.984375 31.5625 -25.25 C 35.296875 -21.519531 37.164062 -16.992188 37.164062 -11.675781 C 37.164062 -6.488281 35.308594 -2.003906 31.605469 1.773438 C 27.867188 5.589844 23.328125 7.496094 17.988281 7.496094 Z M 17.988281 -4.339844 C 20.015625 -4.339844 21.734375 -5.0625 23.152344 -6.507812 C 24.601562 -7.988281 25.328125 -9.710938 25.328125 -11.675781 C 25.328125 -13.726562 24.617188 -15.460938 23.195312 -16.882812 C 21.773438 -18.304688 20.039062 -19.015625 17.988281 -19.015625 C 16.023438 -19.015625 14.300781 -18.289062 12.820312 -16.839844 C 11.375 -15.421875 10.652344 -13.703125 10.652344 -11.675781 C 10.652344 -9.734375 11.390625 -8.027344 12.863281 -6.550781 C 14.339844 -5.078125 16.046875 -4.339844 17.988281 -4.339844 Z M 17.988281 -4.339844 "/></g></g><g style="fill:#007951;fill-opacity:1;"><g transform="translate(28.395539, 162.368163)"><path style="stroke:none" d="M 20.984375 6.625 C 14.566406 6.625 9.332031 5.332031 5.28125 2.75 C 1.238281 0.175781 -1.703125 -3.15625 -3.546875 -7.25 C -5.390625 -11.351562 -6.3125 -15.5625 -6.3125 -19.875 C -6.3125 -24.195312 -5.441406 -28.328125 -3.703125 -32.265625 C -1.972656 -36.210938 0.46875 -39.421875 3.625 -41.890625 C 6.78125 -44.367188 10.460938 -45.609375 14.671875 -45.609375 C 16.253906 -45.609375 17.046875 -44.972656 17.046875 -43.703125 C 17.046875 -40.234375 18.539062 -37.421875 21.53125 -35.265625 C 24.53125 -33.109375 28.1875 -32.03125 32.5 -32.03125 C 37.445312 -32.03125 42.707031 -34.160156 48.28125 -38.421875 C 53.863281 -42.679688 58.492188 -49.546875 62.171875 -59.015625 C 63.535156 -62.585938 64.925781 -66.296875 66.34375 -70.140625 C 67.769531 -73.984375 69.164062 -77.585938 70.53125 -80.953125 C 71.582031 -83.679688 72.976562 -85.625 74.71875 -86.78125 C 76.457031 -87.945312 78.484375 -88.53125 80.796875 -88.53125 C 84.160156 -88.53125 86.289062 -87.765625 87.1875 -86.234375 C 88.082031 -84.710938 88.265625 -82.632812 87.734375 -80 C 87.210938 -77.476562 86.210938 -74.347656 84.734375 -70.609375 C 83.265625 -66.878906 81.6875 -62.988281 80 -58.9375 C 78.320312 -54.882812 76.875 -51.039062 75.65625 -47.40625 C 74.445312 -43.78125 73.84375 -40.757812 73.84375 -38.34375 C 73.84375 -36.34375 74.445312 -34.632812 75.65625 -33.21875 C 76.875 -31.800781 78.796875 -31.09375 81.421875 -31.09375 C 84.890625 -31.09375 88.046875 -32.273438 90.890625 -34.640625 C 93.734375 -37.003906 96.234375 -40.128906 98.390625 -44.015625 C 100.546875 -47.910156 102.203125 -52.222656 103.359375 -56.953125 C 104.515625 -61.691406 105.09375 -66.378906 105.09375 -71.015625 C 105.09375 -75.535156 104.273438 -79.6875 102.640625 -83.46875 C 101.015625 -87.257812 98.175781 -90.335938 94.125 -92.703125 C 90.070312 -95.066406 84.414062 -96.25 77.15625 -96.25 C 72.21875 -96.25 67.484375 -95.429688 62.953125 -93.796875 C 58.429688 -92.171875 54.75 -89.675781 51.90625 -86.3125 C 49.070312 -82.945312 47.65625 -78.53125 47.65625 -73.0625 C 47.65625 -70.75 48.234375 -68.828125 49.390625 -67.296875 C 50.546875 -65.773438 51.96875 -65.015625 53.65625 -65.015625 C 54.8125 -64.910156 55.097656 -63.804688 54.515625 -61.703125 C 53.941406 -59.597656 52.679688 -57.203125 50.734375 -54.515625 C 48.785156 -51.835938 46.285156 -49.5 43.234375 -47.5 C 40.179688 -45.5 36.765625 -44.5 32.984375 -44.5 C 28.671875 -44.5 25.039062 -45.578125 22.09375 -47.734375 C 19.144531 -49.890625 16.929688 -52.726562 15.453125 -56.25 C 13.984375 -59.78125 13.25 -63.539062 13.25 -67.53125 C 13.25 -74.269531 14.75 -80.632812 17.75 -86.625 C 20.75 -92.625 24.984375 -97.9375 30.453125 -102.5625 C 35.921875 -107.195312 42.414062 -110.828125 49.9375 -113.453125 C 57.457031 -116.085938 65.742188 -117.40625 74.796875 -117.40625 C 84.890625 -117.40625 93.378906 -116.0625 100.265625 -113.375 C 107.160156 -110.695312 112.6875 -107.015625 116.84375 -102.328125 C 121 -97.648438 124 -92.285156 125.84375 -86.234375 C 127.6875 -80.179688 128.609375 -73.789062 128.609375 -67.0625 C 128.609375 -58.644531 127.34375 -50.359375 124.8125 -42.203125 C 122.289062 -34.054688 118.847656 -26.691406 114.484375 -20.109375 C 110.117188 -13.535156 105.09375 -8.273438 99.40625 -4.328125 C 93.726562 -0.390625 87.734375 1.578125 81.421875 1.578125 C 74.898438 1.578125 69.742188 -0.390625 65.953125 -4.328125 C 62.171875 -8.273438 60.066406 -13.515625 59.640625 -20.046875 C 55.222656 -11.835938 49.703125 -5.335938 43.078125 -0.546875 C 36.453125 4.234375 29.085938 6.625 20.984375 6.625 Z M 20.984375 6.625 "/></g></g><g style="fill:#007951;fill-opacity:1;"><g transform="translate(156.840535, 162.368163)"><path style="stroke:none" d="M 31.71875 -85.375 C 27.925781 -85.375 24.660156 -86.1875 21.921875 -87.8125 C 19.191406 -89.445312 17.828125 -92.367188 17.828125 -96.578125 C 17.828125 -102.148438 19.378906 -105.960938 22.484375 -108.015625 C 25.585938 -110.066406 29.296875 -111.09375 33.609375 -111.09375 C 37.609375 -111.09375 41 -110.195312 43.78125 -108.40625 C 46.570312 -106.613281 47.757812 -103.25 47.34375 -98.3125 C 46.914062 -93.46875 45.226562 -90.097656 42.28125 -88.203125 C 39.34375 -86.316406 35.820312 -85.375 31.71875 -85.375 Z M 14.203125 0 C 8.941406 0 5.207031 -1.914062 3 -5.75 C 0.789062 -9.59375 -0.3125 -14.25 -0.3125 -19.71875 C -0.3125 -23.40625 0.0507812 -27.300781 0.78125 -31.40625 C 1.519531 -35.507812 2.46875 -39.453125 3.625 -43.234375 C 7.3125 -54.703125 10.890625 -63.507812 14.359375 -69.65625 C 17.828125 -75.8125 21.828125 -78.890625 26.359375 -78.890625 C 29.929688 -78.890625 31.71875 -76.523438 31.71875 -71.796875 C 31.71875 -68.640625 31.113281 -65.40625 29.90625 -62.09375 C 28.695312 -58.78125 27.507812 -55.519531 26.34375 -52.3125 C 25.1875 -49.101562 24.609375 -46.078125 24.609375 -43.234375 C 24.609375 -40.609375 25.265625 -38.632812 26.578125 -37.3125 C 27.898438 -36 29.613281 -35.34375 31.71875 -35.34375 C 34.132812 -35.34375 36.15625 -36.078125 37.78125 -37.546875 C 39.414062 -39.023438 41.023438 -40.921875 42.609375 -43.234375 C 43.453125 -44.492188 44.53125 -44.96875 45.84375 -44.65625 C 47.15625 -44.34375 48.257812 -43.632812 49.15625 -42.53125 C 50.050781 -41.425781 50.234375 -40.398438 49.703125 -39.453125 C 48.648438 -37.765625 47.414062 -35.34375 46 -32.1875 C 44.582031 -29.03125 42.875 -25.609375 40.875 -21.921875 C 38.875 -18.242188 36.582031 -14.75 34 -11.4375 C 31.425781 -8.125 28.507812 -5.390625 25.25 -3.234375 C 21.988281 -1.078125 18.304688 0 14.203125 0 Z M 14.203125 0 "/></g></g><g style="fill:#007951;fill-opacity:1;"><g transform="translate(195.658072, 162.368163)"><path style="stroke:none" d="M 83.3125 -43.234375 C 83.945312 -44.179688 84.945312 -44.523438 86.3125 -44.265625 C 87.675781 -44.003906 88.859375 -43.425781 89.859375 -42.53125 C 90.859375 -41.632812 91.046875 -40.554688 90.421875 -39.296875 C 88.109375 -34.453125 85.867188 -29.710938 83.703125 -25.078125 C 81.546875 -20.453125 79.257812 -16.242188 76.84375 -12.453125 C 74.425781 -8.671875 71.742188 -5.648438 68.796875 -3.390625 C 65.847656 -1.128906 62.484375 0 58.703125 0 C 56.390625 0 54.546875 -1.15625 53.171875 -3.46875 C 49.804688 7.363281 46.203125 16.039062 42.359375 22.5625 C 38.523438 29.082031 34.238281 33.816406 29.5 36.765625 C 24.769531 39.710938 19.40625 41.1875 13.40625 41.1875 C 5.101562 41.1875 -1.332031 39.003906 -5.90625 34.640625 C -10.488281 30.273438 -12.78125 24.300781 -12.78125 16.71875 C -12.78125 12.726562 -12.203125 9.285156 -11.046875 6.390625 C -9.890625 3.492188 -8.570312 1.207031 -7.09375 -0.46875 C -5.625 -2.15625 -4.3125 -3.234375 -3.15625 -3.703125 C -2 -4.179688 -1.367188 -4 -1.265625 -3.15625 C -0.835938 0.738281 0.921875 3.894531 4.015625 6.3125 C 7.117188 8.726562 11.300781 9.988281 16.5625 10.09375 C 20.25 10.09375 23.722656 9.195312 26.984375 7.40625 C 30.242188 5.625 33.160156 3.285156 35.734375 0.390625 C 38.316406 -2.492188 40.34375 -5.671875 41.8125 -9.140625 C 43.289062 -12.617188 44.03125 -16.09375 44.03125 -19.5625 C 44.03125 -20.9375 43.503906 -21.59375 42.453125 -21.53125 C 41.398438 -21.476562 40.503906 -20.664062 39.765625 -19.09375 C 37.660156 -13.625 34.582031 -9.3125 30.53125 -6.15625 C 26.476562 -3 22.457031 -1.421875 18.46875 -1.421875 C 12.988281 -1.421875 8.617188 -3.445312 5.359375 -7.5 C 2.097656 -11.550781 0.46875 -16.519531 0.46875 -22.40625 C 0.46875 -28.300781 1.304688 -34.507812 2.984375 -41.03125 C 4.671875 -47.550781 7.222656 -53.675781 10.640625 -59.40625 C 14.066406 -65.144531 18.332031 -69.828125 23.4375 -73.453125 C 28.539062 -77.078125 34.457031 -78.890625 41.1875 -78.890625 C 44.34375 -78.890625 46.785156 -78.597656 48.515625 -78.015625 C 50.253906 -77.441406 51.570312 -76.734375 52.46875 -75.890625 C 53.363281 -75.054688 54.125 -74.347656 54.75 -73.765625 C 55.382812 -73.191406 56.226562 -72.90625 57.28125 -72.90625 C 59.070312 -72.90625 60.519531 -73.40625 61.625 -74.40625 C 62.726562 -75.40625 63.960938 -76.398438 65.328125 -77.390625 C 66.691406 -78.390625 68.585938 -78.890625 71.015625 -78.890625 C 73.117188 -78.890625 74.5625 -78.363281 75.34375 -77.3125 C 76.132812 -76.269531 76.53125 -74.851562 76.53125 -73.0625 C 76.53125 -71.164062 75.925781 -68.925781 74.71875 -66.34375 C 73.507812 -63.769531 71.929688 -60.457031 69.984375 -56.40625 C 68.035156 -52.363281 65.957031 -47.132812 63.75 -40.71875 C 62.695312 -36.507812 62.695312 -33.585938 63.75 -31.953125 C 64.800781 -30.328125 66.222656 -29.515625 68.015625 -29.515625 C 70.429688 -29.515625 73.003906 -30.984375 75.734375 -33.921875 C 78.472656 -36.867188 81 -39.972656 83.3125 -43.234375 Z M 32.828125 -32.65625 C 35.453125 -32.65625 37.765625 -33.441406 39.765625 -35.015625 C 41.765625 -36.597656 43.34375 -38.519531 44.5 -40.78125 C 45.65625 -43.050781 46.234375 -45.289062 46.234375 -47.5 C 46.234375 -49.8125 45.546875 -51.78125 44.171875 -53.40625 C 42.804688 -55.039062 40.601562 -55.859375 37.5625 -55.859375 C 35.03125 -55.859375 32.789062 -55.117188 30.84375 -53.640625 C 28.90625 -52.171875 27.378906 -50.304688 26.265625 -48.046875 C 25.160156 -45.785156 24.609375 -43.5 24.609375 -41.1875 C 24.609375 -38.875 25.238281 -36.875 26.5 -35.1875 C 27.769531 -33.5 29.878906 -32.65625 32.828125 -32.65625 Z M 32.828125 -32.65625 "/></g></g><g style="fill:#007951;fill-opacity:1;"><g transform="translate(275.344452, 162.368163)"><path style="stroke:none" d="M 31.71875 -85.375 C 27.925781 -85.375 24.660156 -86.1875 21.921875 -87.8125 C 19.191406 -89.445312 17.828125 -92.367188 17.828125 -96.578125 C 17.828125 -102.148438 19.378906 -105.960938 22.484375 -108.015625 C 25.585938 -110.066406 29.296875 -111.09375 33.609375 -111.09375 C 37.609375 -111.09375 41 -110.195312 43.78125 -108.40625 C 46.570312 -106.613281 47.757812 -103.25 47.34375 -98.3125 C 46.914062 -93.46875 45.226562 -90.097656 42.28125 -88.203125 C 39.34375 -86.316406 35.820312 -85.375 31.71875 -85.375 Z M 14.203125 0 C 8.941406 0 5.207031 -1.914062 3 -5.75 C 0.789062 -9.59375 -0.3125 -14.25 -0.3125 -19.71875 C -0.3125 -23.40625 0.0507812 -27.300781 0.78125 -31.40625 C 1.519531 -35.507812 2.46875 -39.453125 3.625 -43.234375 C 7.3125 -54.703125 10.890625 -63.507812 14.359375 -69.65625 C 17.828125 -75.8125 21.828125 -78.890625 26.359375 -78.890625 C 29.929688 -78.890625 31.71875 -76.523438 31.71875 -71.796875 C 31.71875 -68.640625 31.113281 -65.40625 29.90625 -62.09375 C 28.695312 -58.78125 27.507812 -55.519531 26.34375 -52.3125 C 25.1875 -49.101562 24.609375 -46.078125 24.609375 -43.234375 C 24.609375 -40.609375 25.265625 -38.632812 26.578125 -37.3125 C 27.898438 -36 29.613281 -35.34375 31.71875 -35.34375 C 34.132812 -35.34375 36.15625 -36.078125 37.78125 -37.546875 C 39.414062 -39.023438 41.023438 -40.921875 42.609375 -43.234375 C 43.453125 -44.492188 44.53125 -44.96875 45.84375 -44.65625 C 47.15625 -44.34375 48.257812 -43.632812 49.15625 -42.53125 C 50.050781 -41.425781 50.234375 -40.398438 49.703125 -39.453125 C 48.648438 -37.765625 47.414062 -35.34375 46 -32.1875 C 44.582031 -29.03125 42.875 -25.609375 40.875 -21.921875 C 38.875 -18.242188 36.582031 -14.75 34 -11.4375 C 31.425781 -8.125 28.507812 -5.390625 25.25 -3.234375 C 21.988281 -1.078125 18.304688 0 14.203125 0 Z M 14.203125 0 "/></g></g><g style="fill:#007951;fill-opacity:1;"><g transform="translate(40.400425, 287.74747)"><path style="stroke:none" d="M 13.40625 0 C 7.832031 0 3.941406 -1.550781 1.734375 -4.65625 C -0.472656 -7.757812 -1.578125 -11.625 -1.578125 -16.25 C -1.578125 -20.25 -1.078125 -24.613281 -0.078125 -29.34375 C 0.921875 -34.082031 2.207031 -38.710938 3.78125 -43.234375 C 9.144531 -58.597656 13.691406 -71.484375 17.421875 -81.890625 C 21.160156 -92.304688 24.765625 -100.171875 28.234375 -105.484375 C 31.710938 -110.796875 35.554688 -113.453125 39.765625 -113.453125 C 43.023438 -113.453125 45.078125 -112.21875 45.921875 -109.75 C 46.765625 -107.28125 45.972656 -103.570312 43.546875 -98.625 C 39.234375 -89.894531 35.523438 -81.820312 32.421875 -74.40625 C 29.316406 -66.988281 26.875 -59.960938 25.09375 -53.328125 C 24.25 -50.285156 23.640625 -47.367188 23.265625 -44.578125 C 22.898438 -41.785156 23.242188 -39.519531 24.296875 -37.78125 C 25.347656 -36.050781 27.453125 -35.1875 30.609375 -35.1875 C 33.347656 -35.1875 35.742188 -35.894531 37.796875 -37.3125 C 39.847656 -38.738281 41.710938 -40.710938 43.390625 -43.234375 C 44.234375 -44.492188 45.335938 -44.941406 46.703125 -44.578125 C 48.078125 -44.210938 49.207031 -43.503906 50.09375 -42.453125 C 50.988281 -41.398438 51.125 -40.347656 50.5 -39.296875 C 49.445312 -37.609375 48.179688 -35.160156 46.703125 -31.953125 C 45.234375 -28.742188 43.472656 -25.320312 41.421875 -21.6875 C 39.367188 -18.0625 36.972656 -14.59375 34.234375 -11.28125 C 31.503906 -7.96875 28.425781 -5.257812 25 -3.15625 C 21.582031 -1.050781 17.71875 0 13.40625 0 Z M 13.40625 0 "/></g></g><g style="fill:#007951;fill-opacity:1;"><g transform="translate(80.16472, 287.74747)"><path style="stroke:none" d="M 16.71875 0 C 11.351562 0 7.300781 -2.207031 4.5625 -6.625 C 1.832031 -11.039062 0.46875 -16.773438 0.46875 -23.828125 C 0.46875 -28.242188 1.019531 -32.953125 2.125 -37.953125 C 3.226562 -42.953125 4.859375 -47.867188 7.015625 -52.703125 C 9.171875 -57.546875 11.878906 -61.9375 15.140625 -65.875 C 18.410156 -69.820312 22.203125 -72.976562 26.515625 -75.34375 C 30.828125 -77.707031 35.71875 -78.890625 41.1875 -78.890625 C 44.34375 -78.890625 46.785156 -78.597656 48.515625 -78.015625 C 50.253906 -77.441406 51.570312 -76.734375 52.46875 -75.890625 C 53.363281 -75.054688 54.125 -74.347656 54.75 -73.765625 C 55.382812 -73.191406 56.226562 -72.90625 57.28125 -72.90625 C 59.070312 -72.90625 60.519531 -73.40625 61.625 -74.40625 C 62.726562 -75.40625 63.960938 -76.398438 65.328125 -77.390625 C 66.691406 -78.390625 68.585938 -78.890625 71.015625 -78.890625 C 73.117188 -78.890625 74.5625 -78.363281 75.34375 -77.3125 C 76.132812 -76.269531 76.53125 -74.851562 76.53125 -73.0625 C 76.53125 -70.113281 75.710938 -67.191406 74.078125 -64.296875 C 72.453125 -61.410156 70.742188 -57.648438 68.953125 -53.015625 C 66.328125 -47.234375 65.351562 -42.816406 66.03125 -39.765625 C 66.71875 -36.710938 68.796875 -35.1875 72.265625 -35.1875 C 75.003906 -35.1875 77.375 -35.894531 79.375 -37.3125 C 81.375 -38.738281 83.160156 -40.710938 84.734375 -43.234375 C 85.578125 -44.492188 86.65625 -44.941406 87.96875 -44.578125 C 89.28125 -44.210938 90.382812 -43.503906 91.28125 -42.453125 C 92.175781 -41.398438 92.363281 -40.347656 91.84375 -39.296875 C 89.945312 -35.609375 87.921875 -31.53125 85.765625 -27.0625 C 83.609375 -22.59375 81.210938 -18.304688 78.578125 -14.203125 C 75.953125 -10.097656 72.953125 -6.703125 69.578125 -4.015625 C 66.210938 -1.335938 62.320312 0 57.90625 0 C 52.4375 0 48.570312 -2.207031 46.3125 -6.625 C 44.050781 -11.039062 43.394531 -16.507812 44.34375 -23.03125 L 43.703125 -23.03125 C 40.546875 -16.613281 36.65625 -11.171875 32.03125 -6.703125 C 27.40625 -2.234375 22.300781 0 16.71875 0 Z M 32.5 -32.65625 C 35.238281 -32.65625 37.632812 -33.441406 39.6875 -35.015625 C 41.738281 -36.597656 43.34375 -38.519531 44.5 -40.78125 C 45.65625 -43.050781 46.234375 -45.289062 46.234375 -47.5 C 46.234375 -50.125 45.492188 -52.171875 44.015625 -53.640625 C 42.546875 -55.117188 40.550781 -55.859375 38.03125 -55.859375 C 35.289062 -55.859375 32.921875 -55.117188 30.921875 -53.640625 C 28.929688 -52.171875 27.378906 -50.304688 26.265625 -48.046875 C 25.160156 -45.785156 24.609375 -43.5 24.609375 -41.1875 C 24.609375 -38.550781 25.316406 -36.46875 26.734375 -34.9375 C 28.160156 -33.414062 30.082031 -32.65625 32.5 -32.65625 Z M 32.5 -32.65625 "/></g></g><g style="fill:#007951;fill-opacity:1;"><g transform="translate(161.271269, 287.74747)"><path style="stroke:none" d="M 9.9375 0 C 6.257812 0 3.421875 -1.101562 1.421875 -3.3125 C -0.578125 -5.519531 -1.578125 -8.253906 -1.578125 -11.515625 C -1.578125 -15.203125 -1.15625 -19.804688 -0.3125 -25.328125 C 0.53125 -30.847656 1.84375 -36.816406 3.625 -43.234375 C 5.414062 -49.441406 7.390625 -55.253906 9.546875 -60.671875 C 11.703125 -66.085938 13.910156 -70.476562 16.171875 -73.84375 C 18.429688 -77.207031 20.5625 -78.890625 22.5625 -78.890625 C 24.664062 -78.890625 26.054688 -78.285156 26.734375 -77.078125 C 27.421875 -75.867188 27.765625 -74.476562 27.765625 -72.90625 C 27.765625 -69.851562 28.5 -67.957031 29.96875 -67.21875 C 31.445312 -66.476562 33.453125 -67.375 35.984375 -69.90625 C 38.921875 -72.75 41.96875 -74.957031 45.125 -76.53125 C 48.28125 -78.101562 51.597656 -78.890625 55.078125 -78.890625 C 59.910156 -78.890625 63.484375 -77.46875 65.796875 -74.625 C 68.109375 -71.789062 69.265625 -68.375 69.265625 -64.375 C 69.265625 -61.644531 68.84375 -59.148438 68 -56.890625 C 67.164062 -54.628906 66.328125 -52.421875 65.484375 -50.265625 C 64.640625 -48.109375 64.21875 -45.710938 64.21875 -43.078125 C 64.21875 -37.816406 66.742188 -35.1875 71.796875 -35.1875 C 74.210938 -35.1875 76.234375 -35.945312 77.859375 -37.46875 C 79.492188 -39 81.101562 -40.921875 82.6875 -43.234375 C 83.53125 -44.492188 84.632812 -44.941406 86 -44.578125 C 87.363281 -44.210938 88.492188 -43.503906 89.390625 -42.453125 C 90.285156 -41.398438 90.414062 -40.347656 89.78125 -39.296875 C 88.726562 -37.609375 87.46875 -35.160156 86 -31.953125 C 84.53125 -28.742188 82.769531 -25.320312 80.71875 -21.6875 C 78.664062 -18.0625 76.269531 -14.59375 73.53125 -11.28125 C 70.800781 -7.96875 67.722656 -5.257812 64.296875 -3.15625 C 60.878906 -1.050781 57.015625 0 52.703125 0 C 47.753906 0 44.28125 -1.628906 42.28125 -4.890625 C 40.289062 -8.148438 39.296875 -11.988281 39.296875 -16.40625 C 39.296875 -20.40625 39.847656 -24.21875 40.953125 -27.84375 C 42.054688 -31.476562 43.160156 -34.796875 44.265625 -37.796875 C 45.367188 -40.796875 45.921875 -43.347656 45.921875 -45.453125 C 45.921875 -47.234375 45.367188 -48.597656 44.265625 -49.546875 C 43.160156 -50.492188 41.710938 -50.96875 39.921875 -50.96875 C 36.867188 -50.96875 34.050781 -49.675781 31.46875 -47.09375 C 28.894531 -44.519531 26.816406 -41.179688 25.234375 -37.078125 C 23.660156 -32.972656 22.875 -28.554688 22.875 -23.828125 L 22.875 -16.71875 C 22.875 -14.09375 22.554688 -11.488281 21.921875 -8.90625 C 21.296875 -6.332031 20.0625 -4.203125 18.21875 -2.515625 C 16.382812 -0.835938 13.625 0 9.9375 0 Z M 9.9375 0 "/></g></g><g style="fill:#007951;fill-opacity:1;"><g transform="translate(240.326469, 287.74747)"><path style="stroke:none" d="M 18.46875 0 C 12.257812 0 7.707031 -2.15625 4.8125 -6.46875 C 1.914062 -10.78125 0.46875 -16.09375 0.46875 -22.40625 C 0.46875 -28.300781 1.304688 -34.507812 2.984375 -41.03125 C 4.671875 -47.550781 7.222656 -53.675781 10.640625 -59.40625 C 14.066406 -65.144531 18.332031 -69.828125 23.4375 -73.453125 C 28.539062 -77.078125 34.457031 -78.890625 41.1875 -78.890625 C 44.34375 -78.890625 46.785156 -78.519531 48.515625 -77.78125 C 50.253906 -77.050781 51.570312 -76.1875 52.46875 -75.1875 C 53.363281 -74.1875 54.125 -73.289062 54.75 -72.5 C 55.382812 -71.71875 56.226562 -71.328125 57.28125 -71.328125 C 58.125 -71.328125 58.804688 -72.269531 59.328125 -74.15625 C 59.859375 -76.050781 60.648438 -78.863281 61.703125 -82.59375 C 62.753906 -86.332031 64.382812 -90.882812 66.59375 -96.25 C 68.59375 -101.09375 70.5625 -104.75 72.5 -107.21875 C 74.445312 -109.695312 76.316406 -111.351562 78.109375 -112.1875 C 79.898438 -113.03125 81.582031 -113.453125 83.15625 -113.453125 C 85.894531 -113.453125 87.707031 -112.109375 88.59375 -109.421875 C 89.488281 -106.742188 88.882812 -103.144531 86.78125 -98.625 L 68.953125 -53.015625 C 66.328125 -47.234375 65.351562 -42.816406 66.03125 -39.765625 C 66.71875 -36.710938 68.796875 -35.1875 72.265625 -35.1875 C 75.003906 -35.1875 77.375 -35.894531 79.375 -37.3125 C 81.375 -38.738281 83.160156 -40.710938 84.734375 -43.234375 C 85.578125 -44.492188 86.65625 -44.941406 87.96875 -44.578125 C 89.28125 -44.210938 90.382812 -43.503906 91.28125 -42.453125 C 92.175781 -41.398438 92.363281 -40.347656 91.84375 -39.296875 C 89.945312 -35.609375 87.921875 -31.53125 85.765625 -27.0625 C 83.609375 -22.59375 81.210938 -18.304688 78.578125 -14.203125 C 75.953125 -10.097656 72.953125 -6.703125 69.578125 -4.015625 C 66.210938 -1.335938 62.320312 0 57.90625 0 C 52.863281 0 49.128906 -2.207031 46.703125 -6.625 C 44.285156 -11.039062 43.5 -16.507812 44.34375 -23.03125 L 43.703125 -23.03125 C 40.441406 -16.613281 36.628906 -11.171875 32.265625 -6.703125 C 27.898438 -2.234375 23.300781 0 18.46875 0 Z M 32.828125 -32.65625 C 35.453125 -32.65625 37.765625 -33.441406 39.765625 -35.015625 C 41.765625 -36.597656 43.34375 -38.519531 44.5 -40.78125 C 45.65625 -43.050781 46.234375 -45.289062 46.234375 -47.5 C 46.234375 -49.8125 45.546875 -51.78125 44.171875 -53.40625 C 42.804688 -55.039062 40.601562 -55.859375 37.5625 -55.859375 C 35.03125 -55.859375 32.789062 -55.117188 30.84375 -53.640625 C 28.90625 -52.171875 27.378906 -50.304688 26.265625 -48.046875 C 25.160156 -45.785156 24.609375 -43.5 24.609375 -41.1875 C 24.609375 -38.875 25.238281 -36.875 26.5 -35.1875 C 27.769531 -33.5 29.878906 -32.65625 32.828125 -32.65625 Z M 32.828125 -32.65625 "/></g></g><g style="fill:#007951;fill-opacity:1;"><g transform="translate(321.433019, 287.74747)"><path style="stroke:none" d="M 17.984375 1.578125 C 14.410156 1.578125 11.304688 0.265625 8.671875 -2.359375 C 6.046875 -4.992188 4.734375 -8.097656 4.734375 -11.671875 C 4.734375 -15.359375 6.046875 -18.488281 8.671875 -21.0625 C 11.304688 -23.644531 14.410156 -24.9375 17.984375 -24.9375 C 21.671875 -24.9375 24.800781 -23.644531 27.375 -21.0625 C 29.957031 -18.488281 31.25 -15.359375 31.25 -11.671875 C 31.25 -8.097656 29.957031 -4.992188 27.375 -2.359375 C 24.800781 0.265625 21.671875 1.578125 17.984375 1.578125 Z M 17.984375 1.578125 "/></g></g></g></svg>